<?xml version="1.0" encoding="utf-8"?>
<!-- Generator: Adobe Illustrator 16.0.0, SVG Export Plug-In . SVG Version: 6.00 Build 0)  -->
<!DOCTYPE svg PUBLIC "-//W3C//DTD SVG 1.1//EN" "http://www.w3.org/Graphics/SVG/1.1/DTD/svg11.dtd">
<svg version="1.1" id="Capa_1" xmlns="http://www.w3.org/2000/svg" xmlns:xlink="http://www.w3.org/1999/xlink" x="0px" y="0px"
	 width="673.674px" height="150px" viewBox="0 0 673.674 150" enable-background="new 0 0 673.674 150" xml:space="preserve">
<g>
	<path fill="#F9B233" d="M25.351,3.571v44.74h0.278c5.851-7.8,12.954-11.421,22.844-11.421c18.108,0,26.883,11.979,26.883,30.087
		v43.737H50.005V74.081c0-8.357-1.253-16.994-11.421-16.994c-10.029,0-13.233,8.637-13.233,16.994v36.633H0V3.571H25.351z"/>
	<path fill="#F9B233" d="M162.911,79.234h-53.348c0,10.308,5.432,15.879,15.879,15.879c5.432,0,9.332-1.811,12.118-6.546h24.375
		c-1.949,8.357-6.964,14.486-13.51,18.525c-6.547,4.04-14.626,5.989-22.844,5.989c-23.679,0-41.37-13.372-41.37-38.026
		c0-23.818,16.298-38.166,39.56-38.166c24.794,0,39.141,15.321,39.141,39.697V79.234z M139.371,64.609
		c-1.254-6.826-7.522-11.283-14.347-11.283c-7.383,0-13.511,3.9-15.043,11.283H139.371z"/>
	<path fill="#F9B233" d="M197.617,110.714h-25.351V3.571h25.351V110.714z"/>
	<rect x="211.112" y="39.258" fill="#F9B233" width="25.351" height="71.457"/>
	<path fill="#53BAAB" d="M275.001,47.337h0.279c4.596-7.104,13.232-10.447,21.59-10.447c21.312,0,36.076,17.83,36.076,38.305
		c0,20.615-14.625,37.887-35.798,37.887c-8.218,0-16.715-2.925-22.147-9.192v42.539H249.65V39.258h25.351V47.337z M274.165,75.056
		c0,9.054,5.99,16.019,16.297,16.019c10.308,0,16.298-6.964,16.298-16.019c0-8.775-5.99-16.158-16.298-16.158
		C280.154,58.897,274.165,66.28,274.165,75.056z"/>
	<path fill="#53BAAB" d="M421.35,110.714h-25.352v-7.939h-0.278c-4.457,7.104-13.233,10.307-21.59,10.307
		c-21.173,0-36.077-17.69-36.077-38.166c0-20.476,14.626-38.026,35.798-38.026c8.218,0,16.854,3.064,22.147,9.332v-6.964h25.352
		V110.714z M364.24,75.056c0,9.054,5.989,16.019,16.297,16.019c10.307,0,16.296-6.964,16.296-16.019
		c0-8.775-5.989-16.158-16.296-16.158C370.229,58.897,364.24,66.28,364.24,75.056z"/>
	<path fill="#53BAAB" d="M608.839,75.056c0,24.237-20.058,38.026-43.041,38.026c-22.844,0-43.041-13.65-43.041-38.026
		c0-24.376,20.057-38.166,43.041-38.166S608.839,50.68,608.839,75.056z M549.501,75.056c0,9.054,5.989,16.019,16.297,16.019
		s16.297-6.964,16.297-16.019c0-8.775-5.989-16.158-16.297-16.158S549.501,66.28,549.501,75.056z"/>
	<path fill="#53BAAB" d="M663.089,57.645c-3.901-2.09-9.333-3.482-13.651-3.482c-2.925,0-7.939,1.254-7.939,4.875
		c0,4.875,7.939,5.572,11.422,6.268c11.84,2.367,20.754,7.939,20.754,21.172c0,18.805-17.133,26.604-33.708,26.604
		c-10.168,0-20.197-2.925-28.833-8.218l9.194-17.69c5.153,3.621,13.79,7.243,20.058,7.243c3.204,0,7.939-1.532,7.939-5.432
		c0-5.572-7.939-5.851-15.879-7.94s-15.879-5.99-15.879-18.804c0-17.551,15.879-25.351,31.48-25.351
		c8.079,0,16.158,1.253,23.54,4.597L663.089,57.645z"/>
	<path fill="#53BAAB" d="M488.664,39.257v7.522h-0.278c-5.014-7.1-12.678-9.886-21.036-9.886c-21.865,0-36.636,17.828-36.636,38.721
		c0,20.616,14.35,36.494,35.244,36.494c9.471,0,16.157-3.2,22.706-9.75v6.972c0,11.557-2.649,20.472-16.299,20.472
		c-2.364,0-5.015-0.559-7.243-1.672s-4.036-2.921-4.736-5.429h-28.415c2.229,18.8,24.235,27.3,40.672,27.3
		c26.329,0,41.371-12.257,41.371-42.622V39.257H488.664z M473.201,90.515c-10.308,0-16.293-6.964-16.293-16.015
		c0-8.779,5.986-16.157,16.293-16.157c10.307,0,16.299,7.378,16.299,16.157C489.501,83.551,483.508,90.515,473.201,90.515z"/>
	<path fill="#F9B233" d="M237.994,14.208c0,7.8-6.407,14.207-14.208,14.207c-7.8,0-14.208-6.407-14.208-14.207
		c0-7.8,6.408-14.208,14.208-14.208C231.587,0,237.994,6.407,237.994,14.208z"/>
</g>
</svg>
