<?xml version="1.0" encoding="utf-8"?>
<!-- Generator: Adobe Illustrator 16.0.0, SVG Export Plug-In . SVG Version: 6.00 Build 0)  -->
<!DOCTYPE svg PUBLIC "-//W3C//DTD SVG 1.1//EN" "http://www.w3.org/Graphics/SVG/1.1/DTD/svg11.dtd">
<svg version="1.1" id="Capa_1" xmlns="http://www.w3.org/2000/svg" xmlns:xlink="http://www.w3.org/1999/xlink" x="0px" y="0px"
	 width="50px" height="50px" viewBox="0 0 50 50" enable-background="new 0 0 50 50" xml:space="preserve">
<g>
	<circle fill-rule="evenodd" clip-rule="evenodd" fill="#FFFFFF" cx="25" cy="25" r="25"/>
	<g>
		<circle fill-rule="evenodd" clip-rule="evenodd" fill="#FCDD14" cx="25" cy="25" r="23.781"/>
		<g>
			<path fill="#FFFFFF" d="M45.385,21.035c-0.076-0.025-0.155-0.038-0.236-0.038c-0.063,0-0.125,0.008-0.188,0.024l-7.629,1.956
				L33.713,9.592c-0.091-0.337-0.396-0.559-0.729-0.559c-0.063,0-0.128,0.008-0.192,0.025l-21.777,5.697
				c-0.401,0.105-0.644,0.514-0.542,0.917l3.351,13.265l-7.355,1.954c-0.311,0.083-0.535,0.353-0.56,0.673
				c-0.003,0.043-0.003,0.085,0.001,0.126c0.019,0.278,0.19,0.528,0.451,0.643L29.578,42.5c0.099,0.043,0.201,0.063,0.304,0.063
				c0.23,0,0.455-0.105,0.602-0.298l15.277-20.034c0.104-0.129,0.165-0.293,0.165-0.472C45.926,21.417,45.698,21.127,45.385,21.035z
				"/>
			<g>
				<polygon fill-rule="evenodd" clip-rule="evenodd" fill="#E21E84" points="45.137,21.769 45.148,21.753 36.797,23.895 
					32.982,9.79 11.205,15.486 14.739,29.476 6.661,31.622 6.686,31.633 6.662,31.64 29.882,41.807 45.17,21.76 				"/>
			</g>
			<path fill="#FFFFFF" d="M44.707,16.42c-0.002-0.008-0.004-0.015-0.007-0.022l-0.095-0.315c-0.015-0.048-0.033-0.094-0.056-0.138
				l-0.186-0.369c-0.144-0.285-0.308-0.543-0.487-0.769c-0.179-0.223-0.385-0.431-0.611-0.619c-0.004-0.003-0.009-0.007-0.013-0.011
				c-0.463-0.367-0.984-0.654-1.552-0.854c-1.166-0.409-2.598-0.399-4.254,0.03c-1.238,0.321-2.289,0.816-3.122,1.472
				c-0.863,0.68-1.454,1.43-1.754,2.228c-0.015,0.041-0.03,0.082-0.044,0.123c-0.269-0.288-0.583-0.533-0.941-0.733
				c-0.647-0.362-1.406-0.565-2.246-0.604c-0.466-0.027-0.904-0.015-1.304,0.034c-0.386,0.047-0.833,0.137-1.327,0.265
				c-0.932,0.242-1.749,0.571-2.429,0.979c-0.087,0.052-0.173,0.106-0.257,0.162c-0.112,0.047-0.211,0.118-0.293,0.206
				c-0.463,0.344-0.858,0.737-1.176,1.17c-0.527,0.716-0.838,1.481-0.931,2.285l-1.875-2.276c-0.212-0.257-0.554-0.368-0.876-0.285
				l-3.401,0.882c-0.311,0.081-0.55,0.328-0.621,0.641l-0.286,1.271c-0.176-0.142-0.37-0.265-0.583-0.367
				c-0.536-0.257-1.192-0.383-1.95-0.372c-0.679-0.013-1.483,0.104-2.446,0.353l-4.869,1.263c-0.45,0.117-0.724,0.57-0.619,1.022
				l1.736,7.47c0.052,0.225,0.193,0.419,0.391,0.538c0.135,0.082,0.289,0.124,0.443,0.124c0.072,0,0.144-0.009,0.215-0.027
				l10.372-2.689c0.34-0.089,0.591-0.374,0.635-0.723l0.064-0.514l2.201-0.57l0.297,0.412c0.206,0.287,0.567,0.418,0.91,0.329
				l3.316-0.86c0.283-0.073,0.509-0.286,0.6-0.564c0.007-0.021,0.014-0.045,0.019-0.067c0.993,0.202,2.1,0.146,3.303-0.165
				c0.971-0.252,1.789-0.634,2.433-1.136c0.002-0.001,0.004-0.002,0.006-0.004c0.2,0.139,0.456,0.191,0.705,0.126l2.117-0.549
				c0.448-0.117,0.723-0.568,0.619-1.02c0,0,0.51-0.414,0.912-0.271c1.177,0.419,2.624,0.411,4.3-0.024
				c1.23-0.319,2.277-0.815,3.113-1.476c0.872-0.688,1.471-1.481,1.781-2.358C44.9,18.165,44.941,17.278,44.707,16.42z"/>
			<g>
				<path fill="#1A5EA8" d="M44.136,16.602l-0.096-0.316l-0.195-0.393c-0.122-0.242-0.259-0.458-0.407-0.644
					c-0.149-0.186-0.321-0.36-0.512-0.518c-0.401-0.318-0.854-0.567-1.346-0.74c-1.031-0.362-2.324-0.346-3.842,0.047
					c-1.144,0.297-2.106,0.749-2.861,1.343c-0.762,0.599-1.275,1.245-1.529,1.92c-0.255,0.676-0.308,1.402-0.157,2.158l0.224,0.643
					l0.094,0.283l0.009,0.02c0.427,0.847,1.175,1.466,2.225,1.84c0.502,0.179,1.065,0.268,1.687,0.268
					c0.668,0,1.402-0.103,2.199-0.31c1.134-0.294,2.094-0.747,2.853-1.346c0.765-0.604,1.286-1.29,1.552-2.039
					C44.297,18.067,44.332,17.323,44.136,16.602z M38.208,16.156c0.51-0.132,0.943-0.118,1.291,0.043
					c0.349,0.16,0.624,0.439,0.819,0.827c0.305,0.605,0.375,1.229,0.21,1.854c-0.163,0.614-0.62,1.011-1.399,1.213
					c-0.973,0.253-1.651-0.028-2.073-0.858c-0.325-0.966-0.348-1.72-0.066-2.242C37.206,16.591,37.616,16.31,38.208,16.156
					L38.208,16.156z"/>
				<path fill="#1A5EA8" d="M28.077,20.323l0.395,1.668l1.486-0.426c-0.079,0.236-0.249,0.592-0.462,0.782
					c-0.247,0.221-0.615,0.404-0.951,0.491c-1.087,0.282-1.811,0.034-2.213-0.757c-0.354-0.988-0.391-1.759-0.11-2.291
					c0.214-0.404,0.624-0.687,1.22-0.842c0.836-0.217,1.419-0.073,1.783,0.439l0.06,0.083l3.437-0.892l-0.102-0.203
					c-0.283-0.562-0.709-1.005-1.266-1.315c-0.551-0.307-1.204-0.48-1.941-0.515c-0.423-0.024-0.819-0.014-1.177,0.03
					c-0.354,0.044-0.771,0.127-1.235,0.248c-0.866,0.225-1.621,0.527-2.243,0.901c-0.626,0.376-1.138,0.83-1.521,1.35
					c-0.75,1.019-0.987,2.15-0.706,3.362l0.092,0.404l0.218,0.475c0.042,0.084,0.087,0.166,0.136,0.245l-3.724-4.519l-3.58,0.928
					l-0.675,3.001c-0.051-0.194-0.116-0.37-0.193-0.525c-0.227-0.449-0.569-0.786-1.018-1.001c-0.44-0.211-0.995-0.313-1.642-0.302
					c-0.614-0.013-1.376,0.098-2.27,0.33l-5.008,1.299l1.803,7.758l3.618-0.938l-0.551-2.329l1.567-0.406
					c1.521-0.395,2.586-0.944,3.189-1.644l-0.785,3.492l3.578-0.928l0.137-1.09l3.135-0.813l0.639,0.889l3.639-0.943l-1.271-1.542
					c0.391,0.357,0.878,0.632,1.457,0.822c1.009,0.33,2.19,0.323,3.511-0.019c1.212-0.314,2.138-0.84,2.757-1.563l0.267,0.582
					l2.376-0.616l-1.012-4.416L28.077,20.323z M19.653,24.409l-2.124,0.551l0.436-2.976L19.653,24.409z M9.26,25.236l-0.398-1.515
					c0,0,0.751-0.198,1.202-0.318c0.647-0.174,1.133-0.216,1.381,0.181c0.118,0.189,0.129,0.614-0.041,0.824
					c-0.186,0.229-0.426,0.36-0.853,0.494C10.232,25.001,9.26,25.236,9.26,25.236z"/>
			</g>
			<g>
				<path fill="#A11B7E" d="M34.165,30.291c0.142-0.206,0.305-0.398,0.467-0.59c0.818-0.962,1.572-1.97,2.157-3.094
					c0.187-0.359,0.468-0.923,0.623-1.297c0.048-0.114,0.03-0.22-0.065-0.316c-0.25-0.249-0.423-0.264-0.708-0.036
					c-1.526,1.219-2.688,2.955-3.231,4.828c-0.029,0.103-0.081,0.209-0.152,0.286c-0.588,0.638-1.182,1.27-1.776,1.9
					c-0.055,0.058-0.121,0.107-0.191,0.143c-0.053,0.027-0.139,0.056-0.176,0.032c-0.041-0.027-0.048-0.113-0.061-0.175
					c-0.007-0.032,0.003-0.07,0.012-0.104c0.105-0.386,0.188-0.78,0.323-1.155c0.133-0.366,0.32-0.714,0.484-1.069
					c0.042-0.09,0.078-0.191-0.067-0.197c-0.346-0.015-0.622,0.037-0.821,0.404c-0.084,0.154-0.137,0.332-0.247,0.464
					c-0.584,0.694-1.168,1.39-1.779,2.06c-0.378,0.414-0.837,0.733-1.385,0.898c-0.157,0.047-0.25-0.003-0.264-0.164
					c-0.012-0.133-0.007-0.272,0.022-0.402c0.151-0.676,0.473-1.265,0.947-1.77c0.204-0.216,0.435-0.396,0.734-0.503
					c0.004,0.076,0.008,0.159-0.03,0.212c-0.153,0.211-0.322,0.41-0.479,0.618c-0.037,0.048-0.049,0.114-0.072,0.172
					c0.068,0.019,0.146,0.066,0.202,0.05c0.167-0.051,0.336-0.109,0.484-0.198c0.371-0.223,0.64-0.535,0.715-0.976
					c0.054-0.309-0.11-0.49-0.426-0.492c-0.04,0-0.08,0.003-0.119,0.011c-0.701,0.137-1.204,0.603-1.722,1.041
					c-0.123,0.104-0.207,0.256-0.314,0.382c-0.592,0.7-1.185,1.399-1.78,2.097c-0.078,0.092-0.175,0.168-0.276,0.265
					c-0.007-0.048-0.016-0.069-0.011-0.086c0.066-0.235,0.115-0.478,0.207-0.702c0.198-0.483,0.419-0.957,0.629-1.435
					c0.042-0.097,0.061-0.193-0.038-0.272c-0.167-0.134-0.357-0.134-0.531,0.012c-0.176-0.234-0.39-0.179-0.597-0.052
					c-0.187,0.115-0.377,0.233-0.538,0.38c-0.793,0.726-1.348,1.614-1.732,2.611c-0.103,0.266-0.189,0.542-0.153,0.835
					c0.046,0.368,0.468,0.611,0.772,0.372c0.114-0.09,0.242-0.174,0.324-0.288c0.268-0.374,0.52-0.761,0.773-1.146
					c0.034-0.051,0.035-0.123,0.052-0.186c0.024,0.011,0.049,0.021,0.073,0.031c0.012,0.072,0.021,0.145,0.036,0.216
					c0.04,0.191,0.062,0.389,0.126,0.571c0.112,0.319,0.351,0.38,0.585,0.139c0.265-0.272,0.507-0.568,0.745-0.866
					c0.205-0.257,0.39-0.53,0.595-0.812c0.011,0.137,0.012,0.252,0.03,0.364c0.109,0.663,0.5,1.008,1.196,0.68
					c0.233-0.11,0.459-0.249,0.665-0.404c0.634-0.478,1.149-1.073,1.643-1.688c0.098-0.122,0.192-0.246,0.314-0.402
					c-0.03,0.172-0.056,0.299-0.075,0.426c-0.033,0.221-0.033,0.438,0.048,0.652c0.128,0.34,0.372,0.502,0.732,0.467
					c0.291-0.028,0.55-0.146,0.74-0.363c0.373-0.426,0.729-0.866,1.087-1.305c0.104-0.126,0.191-0.264,0.278-0.385
					c0.061,0.211,0.106,0.42,0.181,0.619c0.207,0.561,0.584,0.72,1.115,0.449c0.204-0.104,0.397-0.257,0.553-0.427
					c0.914-1.003,1.63-2.15,2.351-3.292c0.084-0.133,0.055-0.215-0.094-0.325c-0.038,0.048-0.069,0.086-0.101,0.125
					c-0.534,0.651-1.06,1.311-1.604,1.954c-0.347,0.408-0.709,0.807-1.157,1.111c-0.218,0.147-0.337,0.104-0.407-0.147
					C33.928,30.769,34.011,30.516,34.165,30.291z M36.411,25.875c-0.001,0.432-1.571,3.059-1.903,3.183
					C34.993,27.906,35.621,26.842,36.411,25.875z M23.479,34.195c-0.018-0.008-0.035-0.017-0.053-0.025
					c0.01-0.065,0.009-0.135,0.032-0.194c0.311-0.824,0.758-1.561,1.418-2.153c0.101-0.091,0.23-0.148,0.347-0.222
					c0.013,0.017,0.026,0.034,0.04,0.051C24.684,32.511,24.166,33.413,23.479,34.195z"/>
				<path fill="#A11B7E" d="M23.248,31.618c-0.067-0.105-0.122-0.225-0.208-0.313c-0.056-0.058-0.155-0.087-0.239-0.103
					c-0.127-0.022-0.258-0.034-0.387-0.027c-0.516,0.026-1.001,0.186-1.486,0.346c-0.129,0.043-0.258,0.085-0.421,0.14
					c0.03-0.068,0.038-0.093,0.051-0.113c0.313-0.492,0.626-0.984,0.942-1.476c0.151-0.234,0.151-0.25-0.103-0.416
					c0.154-0.061,0.287-0.121,0.425-0.165c0.994-0.312,1.989-0.619,2.984-0.928c0.249-0.077,0.5-0.146,0.748-0.225
					c0.04-0.013,0.071-0.052,0.106-0.079c-0.029-0.033-0.051-0.077-0.087-0.1c-0.346-0.213-0.711-0.362-1.125-0.379
					c-0.557-0.024-1.101,0.062-1.637,0.192c-1.101,0.269-2.152,0.682-3.184,1.145c-0.227,0.102-0.452,0.209-0.695,0.322
					c0.035-0.082,0.059-0.141,0.101-0.239c-0.116,0.03-0.201,0.037-0.269,0.074c-0.278,0.152-0.558,0.303-0.823,0.476
					c-0.204,0.132-0.396,0.286-0.574,0.452c-0.157,0.146-0.149,0.284-0.017,0.457c0.13,0.171,0.318,0.239,0.513,0.197
					c0.35-0.076,0.698-0.17,1.035-0.29c0.608-0.216,1.207-0.456,1.811-0.685c0.06-0.023,0.125-0.034,0.187-0.051
					c0.004,0.01,0.009,0.02,0.014,0.029c-0.095,0.116-0.198,0.228-0.283,0.351c-0.407,0.586-0.814,1.173-1.211,1.765
					c-0.1,0.149-0.219,0.253-0.383,0.324c-0.233,0.101-0.462,0.214-0.683,0.34c-0.169,0.097-0.184,0.242-0.062,0.394
					c0.065,0.081,0.132,0.162,0.209,0.231c0.102,0.092,0.103,0.174,0.04,0.297c-0.331,0.635-0.558,1.3-0.535,2.028
					c0.003,0.101,0.012,0.231,0.074,0.292c0.188,0.185,0.435,0.238,0.678,0.247c0.022-0.194,0.028-0.371,0.065-0.54
					c0.039-0.178,0.102-0.35,0.166-0.521c0.19-0.507,0.396-1.008,0.577-1.518c0.097-0.271,0.266-0.454,0.523-0.563
					c0.972-0.411,1.944-0.82,2.916-1.233C23.086,31.719,23.166,31.664,23.248,31.618z"/>
				<path fill="#A11B7E" d="M25.259,30.21c-0.017,0.061,0,0.156,0.041,0.198c0.033,0.033,0.14,0.033,0.188,0.005
					c0.269-0.162,0.542-0.321,0.792-0.511c0.277-0.211,0.498-0.481,0.617-0.816c0.043-0.121,0.046-0.256,0.07-0.404
					c-0.105-0.136-0.182-0.282-0.3-0.377c-0.186-0.149-0.404-0.063-0.46,0.17c-0.14,0.574-0.431,1.063-0.813,1.507
					C25.336,30.048,25.281,30.127,25.259,30.21z"/>
				<path fill="#A11B7E" d="M32.033,28.478c0.024-0.014,0.08-0.038,0.13-0.071c0.258-0.174,0.42-0.424,0.538-0.705
					c0.067-0.161,0.032-0.255-0.101-0.369c-0.125-0.107-0.248-0.085-0.35,0.015c-0.147,0.146-0.305,0.295-0.409,0.471
					c-0.081,0.138-0.113,0.317-0.123,0.481C31.709,28.456,31.853,28.533,32.033,28.478z"/>
			</g>
			<g>
				<path fill="#FFFFFF" d="M33.882,30.028c0.141-0.206,0.304-0.398,0.466-0.59c0.818-0.962,1.573-1.97,2.157-3.094
					c0.187-0.359,0.468-0.922,0.624-1.297c0.047-0.114,0.03-0.221-0.066-0.316c-0.25-0.249-0.423-0.264-0.707-0.037
					c-1.527,1.22-2.688,2.955-3.231,4.829c-0.03,0.102-0.081,0.208-0.152,0.285c-0.588,0.638-1.183,1.27-1.777,1.9
					c-0.054,0.058-0.121,0.107-0.19,0.143c-0.054,0.027-0.14,0.057-0.177,0.032c-0.041-0.027-0.048-0.113-0.06-0.175
					c-0.007-0.032,0.003-0.07,0.012-0.104c0.104-0.386,0.188-0.78,0.323-1.155c0.133-0.366,0.319-0.714,0.483-1.069
					c0.042-0.09,0.079-0.191-0.067-0.197c-0.345-0.014-0.621,0.037-0.82,0.404c-0.084,0.154-0.138,0.332-0.247,0.464
					c-0.584,0.694-1.169,1.39-1.779,2.06c-0.378,0.414-0.837,0.733-1.386,0.898c-0.157,0.047-0.249-0.002-0.263-0.164
					c-0.012-0.133-0.008-0.272,0.021-0.402c0.152-0.676,0.474-1.265,0.948-1.77c0.203-0.216,0.435-0.396,0.734-0.503
					c0.004,0.076,0.008,0.16-0.031,0.212c-0.152,0.211-0.321,0.41-0.479,0.618c-0.036,0.048-0.048,0.114-0.071,0.172
					c0.067,0.019,0.145,0.067,0.202,0.05c0.166-0.051,0.336-0.109,0.484-0.198c0.371-0.223,0.639-0.535,0.715-0.976
					c0.053-0.309-0.111-0.49-0.427-0.492c-0.039,0-0.08,0.003-0.119,0.011c-0.7,0.137-1.204,0.603-1.721,1.041
					c-0.124,0.104-0.208,0.256-0.314,0.382c-0.593,0.7-1.185,1.4-1.781,2.098c-0.078,0.091-0.174,0.167-0.276,0.264
					c-0.007-0.048-0.016-0.069-0.011-0.086c0.066-0.235,0.115-0.478,0.207-0.702c0.198-0.483,0.419-0.957,0.629-1.435
					c0.042-0.097,0.06-0.193-0.039-0.272c-0.167-0.134-0.357-0.134-0.531,0.012c-0.176-0.234-0.39-0.179-0.597-0.052
					c-0.187,0.115-0.377,0.233-0.538,0.381c-0.792,0.725-1.348,1.613-1.732,2.61c-0.102,0.266-0.189,0.542-0.153,0.835
					c0.046,0.368,0.468,0.611,0.772,0.372c0.114-0.089,0.242-0.173,0.324-0.288c0.268-0.374,0.521-0.76,0.773-1.146
					c0.033-0.051,0.035-0.123,0.051-0.186c0.024,0.011,0.048,0.021,0.073,0.031c0.012,0.072,0.021,0.145,0.036,0.216
					c0.039,0.191,0.062,0.389,0.126,0.571c0.112,0.319,0.351,0.38,0.586,0.139c0.265-0.272,0.507-0.568,0.744-0.866
					c0.205-0.257,0.39-0.53,0.596-0.812c0.011,0.137,0.011,0.252,0.03,0.364c0.11,0.663,0.5,1.008,1.197,0.68
					c0.233-0.11,0.458-0.249,0.665-0.404c0.633-0.478,1.149-1.072,1.642-1.688c0.098-0.122,0.192-0.246,0.315-0.401
					c-0.031,0.171-0.057,0.298-0.075,0.425c-0.033,0.221-0.033,0.438,0.047,0.652c0.128,0.34,0.373,0.502,0.732,0.467
					c0.291-0.028,0.55-0.146,0.74-0.363c0.373-0.426,0.729-0.866,1.088-1.305c0.103-0.126,0.19-0.264,0.277-0.385
					c0.061,0.211,0.107,0.42,0.181,0.619c0.207,0.561,0.585,0.72,1.115,0.449c0.205-0.104,0.398-0.257,0.553-0.427
					c0.914-1.003,1.63-2.15,2.352-3.292c0.084-0.133,0.055-0.215-0.094-0.325c-0.039,0.048-0.07,0.086-0.102,0.125
					c-0.533,0.652-1.06,1.311-1.604,1.954c-0.347,0.409-0.709,0.807-1.157,1.111c-0.218,0.147-0.337,0.104-0.407-0.147
					C33.645,30.506,33.728,30.253,33.882,30.028z M36.127,25.612c-0.001,0.432-1.57,3.059-1.902,3.183
					C34.709,27.644,35.338,26.579,36.127,25.612z M23.196,33.934c-0.018-0.009-0.036-0.018-0.053-0.026
					c0.01-0.064,0.009-0.135,0.032-0.194c0.311-0.824,0.758-1.561,1.418-2.153c0.101-0.09,0.23-0.148,0.346-0.222
					c0.013,0.017,0.026,0.034,0.04,0.052C24.4,32.248,23.882,33.15,23.196,33.934z"/>
				<path fill="#FFFFFF" d="M22.965,31.355c-0.068-0.105-0.122-0.225-0.208-0.313c-0.057-0.058-0.155-0.087-0.24-0.102
					c-0.126-0.023-0.258-0.035-0.387-0.028c-0.516,0.026-1.001,0.186-1.486,0.346c-0.129,0.043-0.257,0.085-0.421,0.14
					c0.03-0.068,0.038-0.093,0.051-0.113c0.313-0.492,0.626-0.984,0.942-1.476c0.151-0.234,0.15-0.249-0.104-0.416
					c0.154-0.06,0.287-0.121,0.425-0.165c0.994-0.311,1.989-0.619,2.984-0.928c0.249-0.076,0.5-0.146,0.748-0.225
					c0.04-0.013,0.071-0.052,0.106-0.079c-0.029-0.033-0.052-0.077-0.087-0.1c-0.346-0.213-0.71-0.362-1.125-0.379
					c-0.557-0.024-1.101,0.062-1.637,0.192c-1.102,0.269-2.152,0.682-3.185,1.145c-0.227,0.102-0.452,0.209-0.695,0.322
					c0.035-0.082,0.06-0.141,0.101-0.239c-0.116,0.03-0.201,0.037-0.269,0.074c-0.278,0.152-0.558,0.303-0.823,0.476
					c-0.203,0.132-0.396,0.286-0.573,0.452c-0.157,0.147-0.149,0.284-0.018,0.458c0.13,0.17,0.318,0.238,0.513,0.196
					c0.35-0.076,0.698-0.17,1.035-0.289c0.608-0.216,1.207-0.457,1.811-0.686c0.06-0.022,0.125-0.034,0.187-0.051
					c0.004,0.01,0.009,0.02,0.013,0.029c-0.095,0.116-0.197,0.228-0.283,0.351c-0.407,0.586-0.814,1.173-1.211,1.765
					c-0.1,0.149-0.219,0.253-0.383,0.324c-0.233,0.101-0.463,0.214-0.683,0.34c-0.169,0.097-0.184,0.242-0.062,0.394
					c0.065,0.081,0.132,0.162,0.209,0.231c0.102,0.092,0.104,0.174,0.04,0.297c-0.331,0.635-0.558,1.3-0.535,2.028
					c0.003,0.101,0.012,0.232,0.074,0.293c0.188,0.184,0.435,0.237,0.678,0.246c0.022-0.194,0.028-0.371,0.065-0.54
					c0.039-0.177,0.102-0.35,0.166-0.521c0.19-0.507,0.396-1.008,0.578-1.518c0.096-0.271,0.266-0.453,0.523-0.563
					c0.972-0.411,1.945-0.82,2.917-1.232C22.802,31.456,22.882,31.401,22.965,31.355z"/>
				<path fill="#FFFFFF" d="M24.975,29.947c-0.017,0.061,0,0.157,0.042,0.198c0.033,0.033,0.14,0.033,0.188,0.005
					c0.27-0.162,0.542-0.321,0.792-0.511c0.278-0.211,0.499-0.481,0.617-0.816c0.043-0.121,0.046-0.256,0.07-0.404
					c-0.104-0.136-0.181-0.282-0.299-0.377c-0.187-0.149-0.404-0.063-0.461,0.17c-0.14,0.574-0.431,1.063-0.813,1.507
					C25.053,29.785,24.998,29.864,24.975,29.947z"/>
				<path fill="#FFFFFF" d="M31.75,28.215c0.024-0.014,0.08-0.038,0.129-0.071c0.259-0.174,0.421-0.424,0.538-0.705
					c0.068-0.161,0.033-0.255-0.101-0.369c-0.125-0.107-0.248-0.085-0.349,0.015c-0.148,0.146-0.305,0.295-0.409,0.471
					c-0.082,0.138-0.113,0.317-0.123,0.481C31.426,28.193,31.568,28.271,31.75,28.215z"/>
			</g>
		</g>
	</g>
</g>
</svg>
