<?xml version="1.0" encoding="utf-8"?>
<!-- Generator: Adobe Illustrator 16.0.0, SVG Export Plug-In . SVG Version: 6.00 Build 0)  -->
<!DOCTYPE svg PUBLIC "-//W3C//DTD SVG 1.1//EN" "http://www.w3.org/Graphics/SVG/1.1/DTD/svg11.dtd">
<svg version="1.1" id="Capa_1" xmlns="http://www.w3.org/2000/svg" xmlns:xlink="http://www.w3.org/1999/xlink" x="0px" y="0px"
	 width="377.776px" height="100px" viewBox="0 0 377.776 100" enable-background="new 0 0 377.776 100" xml:space="preserve">
<g>
	<rect fill-rule="evenodd" clip-rule="evenodd" fill="#FAD103" width="377.776" height="100"/>
	<g>
		<g>
			<path fill-rule="evenodd" clip-rule="evenodd" fill="#0F1F3D" d="M221.732,52.253c-1.73-2.497-3.438-4.847-5.01-7.286
				c-0.9-1.4-2.088-1.979-3.69-2.086c-1.465-0.099-2.916-0.381-4.346-0.951c4.085,0,8.171-0.049,12.255,0.055
				c0.593,0.014,1.293,0.658,1.73,1.188c1.518,1.836,2.938,3.749,4.248,5.44c5.664-2.853,6.078-3.389,15.219-4.427
				c0.055-0.708,0.527-3.92,0.765-5.683c-2.401-0.401-4.64-0.775-6.878-1.149c0.011-0.071,0.021-0.144,0.031-0.215
				c4.975,0,9.947,0,15.097,0c-0.185,1.588-0.353,3.04-0.544,4.696c0.633-0.05,1.2-0.045,1.75-0.145
				c9.847-1.799,16.53,5.125,14.419,14.948c-1.653,7.688-7.849,12.862-15.724,13.107c-1.478,0.046-2.959,0.007-4.619,0.007
				c-0.68,4.326-1.347,8.564-2.029,12.902c-2.686,0-5.253,0-8.03,0c1.632-10.977,3.238-21.779,4.96-33.362
				c-4.538,1.287-5.32,1.166-10.326,5.272c2.484,5.018,4.801,9.7,7.322,14.799c-2.607,0-4.612,0.098-6.596-0.063
				c-0.531-0.045-1.167-0.786-1.468-1.357c-1.449-2.758-2.798-5.566-4.582-9.157c-2.035,3.354-3.854,6.125-5.412,9.034
				c-0.559,1.042-0.955,1.643-2.236,1.589c-2.449-0.104-4.906-0.03-7.386-0.03C211.277,65.092,215.612,58.404,221.732,52.253z
				 M247.478,62.51c0.846,0.14,1.484,0.316,2.127,0.336c6.474,0.198,11.041-6.844,8.289-12.755c-1.196-2.572-4.908-3.875-7.475-2.56
				c-0.388,0.198-0.784,0.725-0.854,1.152C248.843,53.226,248.184,57.779,247.478,62.51z"/>
			<path fill-rule="evenodd" clip-rule="evenodd" fill="#0F1F3D" d="M204.725,52.258c-4.855,0-9.541,0-14.434,0
				c-0.518,3.442-1.011,6.731-1.554,10.326c7.033,0,13.859,0,20.981,0c-0.376,2.41-0.701,4.502-1.041,6.681
				c-9.919,0-19.668,0-29.785,0c1.932-13.013,3.848-25.924,5.79-38.998c-2.35-0.366-4.388-0.684-6.425-1
				c0.003-0.069,0.006-0.137,0.011-0.206c10.52,0,21.038,0,31.803,0c-0.337,2.341-0.659,4.587-1.014,7.029
				c-5.422,0-10.765,0-16.346,0c-0.478,3.074-0.927,5.978-1.422,9.174c4.818,0,9.487,0,14.468,0
				C205.39,47.747,205.069,49.922,204.725,52.258z"/>
			<path fill-rule="evenodd" clip-rule="evenodd" fill="#0F1F3D" d="M60.111,29.361c-0.089,1.185-0.096,1.999-0.221,2.796
				c-0.249,1.601-0.562,3.194-0.777,4.394c-4.535-0.135-8.843-0.604-13.098-0.314c-7.789,0.53-13.293,5.627-14.329,12.7
				c-1.601,10.957,6.387,14.7,13.927,13.294c3.552-0.663,6.89-2.488,10.354-3.797c-0.42,2.612-0.885,5.604-1.407,8.587
				c-0.052,0.305-0.384,0.667-0.68,0.812c-7.003,3.36-18.563,4.815-25.979-2.408c-8.194-7.976-7.423-22.676,1.692-30.813
				c6.888-6.149,15.192-7.096,23.905-6.352C55.631,28.442,57.739,28.956,60.111,29.361z"/>
			<path fill-rule="evenodd" clip-rule="evenodd" fill="#0F1F3D" d="M87.636,68.992c1.901-12.878,3.811-25.813,5.738-38.875
				c-2.366-0.362-4.451-0.68-6.535-0.998c0.019-0.083,0.033-0.167,0.048-0.252c4.868,0,9.733,0,14.927,0
				c-0.711,4.964-1.39,9.721-2.108,14.742c0.63-0.226,1.036-0.303,1.37-0.502c6.943-4.135,14.917-0.736,15.788,8.786
				c0.98,10.701-5.07,17.612-15.784,18.357C95.419,70.645,90.759,70.232,87.636,68.992z M96.57,63.66
				c8.192,0.737,13.27-4.229,11.863-11.098c-0.531-2.596-1.858-4.002-3.945-4.183c-2.101-0.182-5.567,1.678-5.958,3.568
				C97.732,55.773,97.223,59.661,96.57,63.66z"/>
			<path fill-rule="evenodd" clip-rule="evenodd" fill="#0F1F3D" d="M154.171,41.381c11.416-0.229,16.227,11.288,11.226,20.896
				c-3.52,6.764-11.792,9.893-18.984,7.406c-5.461-1.891-8.731-7.734-7.98-14.263C139.395,47.037,145.724,41.391,154.171,41.381z
				 M146.895,56.953c-0.027,3.654,1.348,5.979,3.849,6.5c2.974,0.622,5.837-0.821,6.987-4.166c0.719-2.088,0.991-4.535,0.702-6.722
				c-0.577-4.374-5.053-5.852-8.406-2.964C147.803,51.517,146.927,54.073,146.895,56.953z"/>
			<path fill-rule="evenodd" clip-rule="evenodd" fill="#0F1F3D" d="M75.075,41.381C86.49,41.152,91.3,52.669,86.301,62.277
				c-3.521,6.764-11.792,9.893-18.985,7.406c-5.461-1.891-8.731-7.734-7.981-14.263C60.298,47.037,66.627,41.391,75.075,41.381z
				 M67.797,56.953c-0.026,3.654,1.349,5.979,3.851,6.5c2.975,0.622,5.837-0.821,6.987-4.166c0.718-2.088,0.99-4.535,0.701-6.722
				c-0.575-4.374-5.052-5.852-8.406-2.964C68.706,51.517,67.83,54.073,67.797,56.953z"/>
			<path fill-rule="evenodd" clip-rule="evenodd" fill="#0F1F3D" d="M314.494,56.786c-6.609,0-12.472,0-18.297,0
				c-0.525,3.938,1.413,6.544,5.3,6.51c2.68-0.022,5.358-0.952,8.021-1.556c0.91-0.208,1.765-0.656,3.027-1.143
				c-0.485,2.442-0.84,4.547-1.365,6.608c-0.115,0.448-0.78,0.881-1.287,1.085c-4.181,1.688-8.543,2.226-12.932,1.247
				c-6.92-1.542-10.629-8.003-9.298-15.785c1.808-10.578,11.353-13.985,19.503-11.706c3.145,0.879,5.379,3.109,6.203,6.231
				C314.058,50.883,314.108,53.654,314.494,56.786z M297.447,51.692c2.877,0,5.746,0,8.608,0c0.065-3.018-0.983-4.421-3.36-4.61
				C300.045,46.871,297.937,48.712,297.447,51.692z"/>
			<path fill-rule="evenodd" clip-rule="evenodd" fill="#0F1F3D" d="M334.779,50.111c-2.26-0.771-4.115-1.591-6.059-1.99
				c-1.022-0.209-3.077-1.262-4.119,0.197c-0.555,1.319,1.623,2.477,2.354,3.242c1.227,1.282,2.736,2.292,4.102,3.444
				c2.776,2.346,3.871,5.256,2.694,8.78c-1.184,3.552-3.902,5.396-7.443,5.938c-3.697,0.565-7.295-0.113-10.637-1.769
				c-0.569-0.28-1.1-1.318-1.077-1.986c0.052-1.533,0.455-3.056,0.729-4.656c2.447,0.671,4.702,1.411,7.002,1.837
				c3.076,0.57,2.719-0.401,3.385-0.849c0.071-0.915-0.215-1.913-1.574-2.897c-1.621-1.171-3.059-2.602-4.533-3.967
				c-2.559-2.368-3.79-5.218-2.406-8.641c1.37-3.387,4.213-5.153,7.681-5.224c2.755-0.056,5.536,0.719,8.292,1.217
				c1.55,0.28,2.225,1.23,1.952,2.896C334.893,47.055,334.894,48.466,334.779,50.111z"/>
			<path fill-rule="evenodd" clip-rule="evenodd" fill="#0F1F3D" d="M355.12,50.09c-2.113-0.727-3.896-1.542-5.766-1.908
				c-1.087-0.212-2.313,0.3-3.476,0.487c0.555,1.043,0.93,2.253,1.705,3.086c1.108,1.19,2.523,2.091,3.789,3.136
				c2.89,2.388,3.986,5.419,2.751,8.984c-1.243,3.596-4.072,5.733-7.751,5.792c-3.204,0.052-6.431-0.809-9.628-1.372
				c-1.462-0.258-2.094-1.2-1.737-2.771c0.309-1.36,0.453-2.757,0.688-4.245c2.438,0.674,4.688,1.481,7.008,1.852
				c1.065,0.171,2.27-0.517,3.41-0.816c-0.513-0.987-0.837-2.154-1.577-2.924c-1.389-1.446-3.041-2.63-4.535-3.978
				c-2.48-2.238-3.574-4.986-2.516-8.256c1.113-3.435,3.855-5.042,7.203-5.595c3.4-0.56,6.709,0.036,9.764,1.631
				c0.555,0.29,1.091,1.203,1.1,1.834C355.575,46.651,355.295,48.281,355.12,50.09z"/>
			<path fill-rule="evenodd" clip-rule="evenodd" fill="#0F1F3D" d="M117.022,69.809c0.932-6.262,1.871-12.211,2.68-18.179
				c0.421-3.107,0.61-6.245,0.922-9.567c2.379,0,5.389,0,8.442,0c0,0.995,0,1.875,0,3.377c3.244-4.193,6.794-5.349,11.177-2.028
				c-1.257,2.737-2.512,5.47-3.752,8.167c-0.258-0.056-0.347-0.05-0.402-0.09c-4.384-3.093-7.904-1.575-8.759,3.826
				c-0.664,4.196-1.348,8.395-1.819,12.614c-0.181,1.608-0.827,1.971-2.26,1.902C121.32,69.738,119.383,69.809,117.022,69.809z"/>
			<path fill-rule="evenodd" clip-rule="evenodd" fill="#0F1F3D" d="M286.007,51.514c-4.561-3.288-8.04-1.82-8.973,3.489
				c-0.412,2.349-0.707,4.717-1.057,7.078c-0.347,2.347-0.694,4.69-1.063,7.154c-2.701,0-5.267,0-8.043,0
				c0.682-4.646,1.329-9.127,2.003-13.605c0.485-3.244,1.097-6.471,1.472-9.726c0.137-1.201-0.244-2.46-0.405-3.833
				c2.815,0,5.749,0,8.795,0c0,0.913,0,1.825,0,2.779c5.835-4.138,7.007-4.311,10.987-1.465
				C288.524,46.011,287.3,48.685,286.007,51.514z"/>
		</g>
	</g>
</g>
</svg>
