<?xml version="1.0" encoding="utf-8"?>
<!-- Generator: Adobe Illustrator 16.0.0, SVG Export Plug-In . SVG Version: 6.00 Build 0)  -->
<!DOCTYPE svg PUBLIC "-//W3C//DTD SVG 1.1//EN" "http://www.w3.org/Graphics/SVG/1.1/DTD/svg11.dtd">
<svg version="1.1" id="Capa_1" xmlns="http://www.w3.org/2000/svg" xmlns:xlink="http://www.w3.org/1999/xlink" x="0px" y="0px"
	 width="3930.75px" height="1202.25px" viewBox="0 0 3930.75 1202.25" enable-background="new 0 0 3930.75 1202.25"
	 xml:space="preserve">
<g>
	<path fill="#00A7DE" d="M3335.357,1200.767c-29.612-2.548-59.135-5.721-88.262-11.912c-54.233-11.526-105.388-30.589-151.9-61.262
		c-55.094-36.331-96.848-84.474-126.967-142.931c-23.403-45.418-38.188-93.663-46.981-143.87
		c-5.871-33.519-8.726-67.278-9.556-101.291c-0.372-15.236-0.463-30.462-0.467-45.69c-0.053-206.366-0.034-412.731-0.041-619.097
		c0-7.775,0.828-15.459,2.789-22.975c6.641-25.449,22.789-41.531,48.133-48.413c2.889-0.785,5.857-1.271,8.789-1.896
		c1.22-1.027,2.687-0.533,4.052-0.657c1.666-0.225,3.491,0.58,4.983-0.772h493.406c5.223,4.443,5.7,7.011,1.318,12.416
		c-4.398,5.425-9.09,10.644-13.871,15.729c-23.777,25.289-47.256,50.85-70.518,76.61c-14.192,15.716-31.479,23.714-52.986,23.449
		c-36.236-0.444-72.482-0.125-108.727-0.115c-3.496,0.001-7.011-0.178-10.469,0.49c-7.499,1.45-11.8,6.239-12.422,13.844
		c-0.225,2.739-0.109,5.494-0.109,8.242c-0.002,178.884-0.299,357.769,0.342,536.652c0.088,24.588-0.176,49.398,3.803,73.951
		c13.889,85.719,65.344,148.891,152.9,171.233c29.24,7.461,59.033,10.112,89.129,9.689c16.016-0.225,20.899-5.272,20.918-21.479
		c0.07-62.71,0.024-125.419,0.029-188.129c0-2.498-0.015-4.997,0.008-7.495c0.164-17.261,9.016-24.746,26.242-23.267
		c83.143,7.138,163.58-3.389,240.098-37.972c72.184-32.624,126.757-84.179,164.521-153.742
		c6.212-11.444,11.386-23.331,16.979-35.044c3.134-6.564,5.273-7.382,10.229-4.356v655.092c-1.49,1.987-0.467,4.28-0.773,6.412
		c-2.24,27.45-17.891,45.754-40.62,59.046c-10.257,5.998-21.464,9.354-33.362,10.219c-1.85,0.005-3.699,0.004-5.549,0.003
		c-1.729,0.235-3.618-0.6-5.18,0.772h-484.407c-3.642-1.664-7.487-0.347-11.216-0.773
		C3344.887,1201.083,3340.051,1202.33,3335.357,1200.767"/>
	<path fill="#B7E8F8" d="M3335.357,1200.767c4.921,0.084,9.843,0.168,14.764,0.252c0.625,0.163,0.867,0.399,0.73,0.71
		c-0.15,0.348-0.313,0.521-0.491,0.521h-14.997C3335.379,1201.756,3335.375,1201.262,3335.357,1200.767"/>
	<path fill="#52C3E9" d="M3350.36,1202.25c-0.087-0.41-0.165-0.82-0.238-1.232c3.62,0.046,7.431-1.56,10.735,1.232H3350.36z"/>
	<path fill="#BBEDF8" d="M3930.75,1131.794l-0.646,0.071l-0.648-0.002c-0.264-2.17-0.656-4.368,1.295-6.065V1131.794z"/>
	<path fill="#BFEDF9" d="M3855.764,1200.751v1.499h-5.999c-0.513-0.351-0.661-0.658-0.446-0.926
		c0.196-0.244,0.395-0.368,0.596-0.368C3851.864,1200.889,3853.814,1200.819,3855.764,1200.751"/>
	<path fill="#9BDCE6" d="M2975.365,1.397c-1.49,0.011-2.98,0.022-4.473,0.033c0.076-0.475,0.09-0.952,0.039-1.43h4.5
		c0.5,0.335,0.658,0.653,0.471,0.956C2975.723,1.25,2975.544,1.397,2975.365,1.397"/>
	<path fill="#4CC5EA" d="M2975.365,1.397c0.068-0.463,0.09-0.929,0.066-1.397h4.498C2978.807,1.765,2977.079,1.558,2975.365,1.397"
		/>
	<path fill="#66C8EB" d="M3849.915,1200.956c-0.089,0.427-0.138,0.858-0.15,1.294h-4.499
		C3846.408,1200.359,3848.189,1200.762,3849.915,1200.956"/>
	<path fill="#626264" d="M1607.448,173.983c3.701-0.544,5.661-2.156,7.703-3.461c33.333-21.291,70.012-29.545,109.199-28.237
		c16.797,0.561,33.344,2.347,49.168,8.508c22.728,8.85,39.197,24.359,49.658,46.331c7.816,16.417,11.743,33.886,13.945,51.799
		c2.288,18.61,2.851,37.304,2.825,56.048c-0.102,71.195-0.041,142.391-0.041,213.585c0,1.748,0.043,3.498-0.008,5.246
		c-0.275,9.602-5.8,15.324-15.404,15.651c-5.991,0.205-11.994,0.048-17.992,0.048c-13.995,0-27.992,0.113-41.986-0.043
		c-10.643-0.118-16.098-5.627-16.464-16.158c-0.061-1.747-0.009-3.497-0.009-5.246c0-75.441,0.056-150.884-0.059-226.325
		c-0.019-11.716-0.613-23.439-2.287-35.08c-2.968-20.636-13.828-31.576-34.355-34.671c-22.211-3.349-43.758-1.281-64.718,7.05
		c-10.448,4.151-20.622,8.845-30.774,13.647c-3.999,1.892-5.291,4.229-5.263,8.577c0.187,29.975,0.097,59.953,0.097,89.929
		c0,59.454,0.001,118.908,0.001,178.363c0,1.748,0.071,3.5-0.019,5.245c-0.416,8.133-6.033,14.438-14.202,14.56
		c-20.989,0.312-41.986,0.305-62.975,0.034c-8.826-0.113-14.168-5.856-14.854-14.72c-0.153-1.988-0.049-3.995-0.049-5.994
		c-0.002-116.909,0.14-233.819-0.181-350.728c-0.04-14.419,5.055-21.886,21.488-21.135c16.71,0.763,33.481,0.134,50.225,0.178
		c11.913,0.032,17.18,5.392,17.325,17.496C1607.478,167.462,1607.448,170.444,1607.448,173.983"/>
	<path fill="#626264" d="M1022.729,146.976c10.495-0.001,20.989-0.026,31.483,0.006c10.017,0.032,14.089,2.765,16.772,12.511
		c2.777,10.088,4.925,20.353,7.265,30.559c20.001,87.248,39.989,174.5,59.96,261.755c0.896,3.917,1.988,7.779,4.155,11.165
		c4.987,7.793,13.097,7.656,17.902-0.291c2.617-4.33,3.637-9.281,4.75-14.134c21.687-94.54,43.331-189.09,65.005-283.634
		c0.556-2.428,1.173-4.867,2.049-7.192c2.873-7.631,7.157-10.7,15.259-10.724c21.987-0.064,43.977-0.068,65.964,0.001
		c10.873,0.034,14.91,4.935,12.558,15.825c-1.788,8.277-4.272,16.405-6.535,24.575c-26.961,97.327-53.986,194.635-80.868,291.982
		c-4.824,17.468-12.414,33.155-26.421,45.16c-12.706,10.89-27.641,17.077-44.047,19.032c-20.303,2.419-40.382,1.507-59.371-7.535
		c-19.324-9.202-31.877-24.423-39.454-44.033c-6.214-16.084-9.938-32.931-14.551-49.494c-25.688-92.24-51.194-184.53-76.747-276.806
		c-0.528-1.909-1.114-3.853-1.251-5.81c-0.591-8.496,3.143-12.746,11.643-12.875C999.74,146.846,1011.235,146.978,1022.729,146.976"
		/>
	<path fill="#00A7DE" d="M1996.355,1093.036v-7.461c0.002-107.405,0.008-214.812-0.005-322.217c0-4.003,0.016-7.974,1.133-11.88
		c2.463-8.605,8.432-13.463,17.312-13.942c0.748-0.041,1.5-0.021,2.25-0.032c16.543-0.246,23.81,6.875,23.812,23.538
		c0.018,121.144,0.003,242.287,0.031,363.431c0.001,5.804-0.704,11.455-2.729,16.899c-4.944,13.291-16.825,21.651-31.028,21.87
		c-2.248,0.034-4.498-0.007-6.748-0.027c-10.468-0.092-18.758-4.498-25.138-12.688c-2.618-3.363-4.743-7.016-6.646-10.831
		c-34.669-69.454-69.384-138.885-104.054-208.338c-20.511-41.091-40.96-82.212-61.44-123.317c-0.751-1.508-1.541-2.996-3.688-4.418
		v8.402c-0.002,107.656-0.003,215.311-0.006,322.966c0,2.248,0.129,4.508-0.051,6.742c-0.847,10.576-8.52,17.866-19.166,18.256
		c-2.246,0.083-4.504,0.106-6.746-0.028c-8.524-0.513-15.145-5.879-17.328-14.088c-1.033-3.88-1.245-7.857-1.245-11.881
		c0.03-119.145,0.009-238.291,0.074-357.436c0.002-4.722,0.354-9.522,1.254-14.148c2.382-12.248,9.593-20.765,21.397-24.852
		c18.37-6.359,38.379-2.625,49.169,19.131c42.038,84.762,84.298,169.413,126.506,254.09c13.143,26.364,26.378,52.682,39.586,79.014
		c0.633,1.264,1.408,2.453,2.117,3.678C1995.438,1093.323,1995.896,1093.18,1996.355,1093.036"/>
	<path fill="#626264" d="M1888.38,341.385c0.243-17-0.589-36.227,1.197-55.423c3.125-33.579,13.512-64.442,34.728-90.981
		c22.391-28.011,52.292-43.314,87.193-49.613c23.297-4.205,46.729-3.449,70.192-2.049c18.477,1.103,36.793,3.231,54.739,7.936
		c1.686,0.441,3.347,0.972,5.02,1.46c5.977,1.743,9.209,5.678,9.529,11.933c0.089,1.743,0.224,3.487,0.226,5.232
		c0.017,14.237-0.287,28.484,0.12,42.71c0.245,8.55-3.4,12.856-12.721,12.493c-7.717-0.301-15.389-1.602-23.098-2.253
		c-24.398-2.058-48.875-3.342-73.317-2.098c-26.355,1.341-44.078,15.334-53.679,39.872c-5.914,15.115-8.025,30.884-8.196,46.919
		c-0.256,23.977-0.267,47.96-0.004,71.937c0.202,18.6,2.878,36.784,11.23,53.752c10.191,20.703,27.058,32.141,49.795,32.961
		c30.188,1.087,60.435,0.666,90.449-3.791c1.972-0.293,3.968-0.541,5.956-0.574c10.047-0.164,13.438,3.183,13.464,13.312
		c0.034,13.988,0.052,27.977-0.004,41.964c-0.049,12.632-2.22,15.495-14.573,18.917c-12.064,3.342-24.457,4.991-36.854,6.342
		c-22.888,2.493-45.91,3.227-68.847,1.687c-35.316-2.371-67.459-13.416-93.816-38.113c-22.396-20.984-35.606-47.218-42.959-76.636
		c-4.137-16.545-5.497-33.46-5.738-50.461C1888.245,367.083,1888.38,355.341,1888.38,341.385"/>
	<path fill="#626264" d="M490.613,173.704c2.443,0.05,3.883-1.913,5.608-3.173c21.095-15.421,44.968-23.4,70.656-26.648
		c6.944-0.878,13.886-1.677,20.89-1.603c9.317,0.099,15.189,5.57,15.291,14.748c0.182,16.232,0.191,32.468-0.006,48.698
		c-0.111,9.273-5.807,14.728-15.263,14.658c-31.127-0.232-60.099,8.01-87.917,21.419c-5.009,2.414-6.626,5.231-6.614,10.765
		c0.192,88.658,0.136,177.317,0.136,265.975c0,1.998,0.104,4.003-0.026,5.993c-0.559,8.605-6.231,14.739-14.797,14.85
		c-20.733,0.269-41.475,0.259-62.209,0.013c-8.932-0.107-14.307-5.688-15.017-14.511c-0.159-1.986-0.055-3.995-0.055-5.992
		c-0.002-117.129-0.002-234.258,0.006-351.387c0-2.495-0.079-5.01,0.185-7.483c0.807-7.6,6.19-12.908,13.904-12.982
		c19.986-0.189,39.977-0.203,59.963,0.001c8.43,0.087,13.807,5.856,14.195,14.217c0.183,3.963-0.512,7.961,0.446,11.89
		C490.036,173.349,490.35,173.48,490.613,173.704"/>
	<path fill="#00A6DF" d="M2096.833,948.376c0-46.465,0.015-92.93-0.017-139.395c-0.005-7.018,0.697-13.979,1.873-20.855
		c4.474-26.149,20.557-41.288,45.795-47.471c9.26-2.269,18.689-3.173,28.224-3.169c45.235,0.021,90.471,0.002,135.706,0.023
		c2.744,0.001,5.533-0.047,8.225,0.395c8.867,1.454,14.69,7.813,15.516,16.719c0.185,1.985,0.232,3.993,0.193,5.988
		c-0.244,12.167-6.76,19.017-19.054,19.352c-11.488,0.314-22.991,0.096-34.487,0.098c-33.99,0.004-67.979,0.052-101.968-0.047
		c-6.021-0.018-11.981,0.508-17.935,1.115c-9.256,0.943-13.679,4.965-16.288,14.002c-1.056,3.657-1.253,7.379-1.255,11.124
		c-0.021,34.724-0.024,69.447-0.004,104.171c0.004,6.911,0.063,6.961,6.937,6.963c53.483,0.012,106.966,0.002,160.448,0.002
		c2.249,0,4.512-0.119,6.744,0.076c9.593,0.844,16.024,7.39,16.716,17.03c0.196,2.733,0.223,5.5,0.062,8.235
		c-0.617,10.441-7.074,17.108-17.459,18.051c-2.231,0.203-4.495,0.083-6.744,0.084c-52.482,0.005-104.966,0.006-157.449,0.009
		c-1.75,0-3.504,0.091-5.248-0.013c-2.819-0.166-4.189,0.986-4.012,3.895c0.09,1.492,0.004,2.996,0.004,4.495
		c-0.002,39.97,0.002,79.939-0.014,119.909c-0.002,5.01,0.146,9.968,1.706,14.816c2.09,6.494,6.112,10.604,13.009,11.976
		c6.186,1.231,12.411,1.335,18.645,1.343c44.235,0.051,88.472,0.034,132.707,0.039c0.75,0,1.5-0.006,2.25,0
		c16.758,0.121,23.58,7.417,22.648,24.219c-0.576,10.375-6.91,17.153-17.238,18.346c-1.728,0.199-3.494,0.089-5.243,0.089
		c-46.984,0.005-93.97,0.06-140.954-0.036c-10.53-0.021-20.832-1.759-30.914-5.003c-24.438-7.864-36.909-25.156-39.962-50.009
		c-0.944-7.689-1.212-15.41-1.199-23.166C2096.872,1037.309,2096.833,992.843,2096.833,948.376"/>
	<path fill="#626264" d="M2201.586,343.299V168.772c0-1.998-0.057-3.998,0.02-5.993c0.392-10.148,5.902-15.681,16.019-15.775
		c12.487-0.117,24.979-0.029,37.468-0.029c7.744,0,15.488-0.092,23.23,0.025c9.383,0.141,14.854,5.356,15.518,14.647
		c0.16,2.237,0.08,4.492,0.08,6.739c0.003,116.602,0.002,233.203,0.001,349.804c0,1.998,0.09,4.003-0.051,5.991
		c-0.684,9.6-6.214,15.092-15.929,15.263c-12.236,0.215-24.479,0.056-36.719,0.057c-7.493,0.001-14.99,0.095-22.48-0.027
		c-11.279-0.184-17.063-5.872-17.12-17.152c-0.118-22.971-0.036-45.941-0.036-68.912V343.299z"/>
	<path fill="#626264" d="M1362.615,342.442c0-58.925,0-117.851,0-176.776c0-1.248-0.032-2.497,0.001-3.745
		c0.253-9.518,5.334-14.776,14.92-14.901c12.988-0.17,25.978-0.044,38.968-0.045c7.493,0,14.989-0.106,22.479,0.028
		c9.534,0.171,15.173,5.896,15.494,15.484c0.041,1.247,0.006,2.497,0.006,3.746c0.001,117.85,0.002,235.701,0.002,353.552
		c0,1.498,0.074,3-0.018,4.493c-0.56,9.055-6.2,14.748-15.29,15.162c-4.985,0.227-9.989,0.059-14.985,0.06
		c-14.488,0.003-28.987-0.344-43.46,0.112c-10.993,0.347-18.379-5.519-18.295-18.148
		C1362.836,461.792,1362.615,402.116,1362.615,342.442"/>
	<path fill="#00A7DE" d="M2474.526,963.171c0-57.684,0-115.367-0.001-173.051c0-1.998-0.061-3.997-0.002-5.993
		c0.082-2.784-1.125-4.17-3.994-4.053c-1.746,0.072-3.497-0.012-5.246-0.012c-27.98-0.002-55.96,0.01-83.939-0.017
		c-2.992-0.003-6.018,0.017-8.97-0.392c-9.063-1.25-14.673-7.574-15.038-16.719c-0.081-1.994-0.047-3.996-0.019-5.994
		c0.161-11.674,6.627-18.513,18.353-19.342c2.238-0.158,4.494-0.095,6.742-0.095c78.943-0.006,157.887-0.012,236.831,0.005
		c4.228,0.001,8.472-0.252,12.601,1.217c7.655,2.726,11.698,8.066,12.426,16.105c1.867,20.666-8.67,25.561-23.481,25.359
		c-31.222-0.427-62.453-0.136-93.681-0.125c-8.154,0.002-8.176,0.023-8.176,8.121c-0.006,114.617-0.006,229.235,0.002,343.854
		c0,3.998-0.027,7.977-0.713,11.941c-0.388,2.255-1.023,4.405-2.182,6.332c-5.408,8.996-13.412,11.445-27.035,8.964
		c-8.629-1.571-14.264-9.164-14.427-18.563c-0.204-11.733-0.05-23.472-0.05-35.208
		C2474.527,1058.063,2474.527,1010.616,2474.526,963.171"/>
	<path fill="#626264" d="M1407.897,95.455c-10.229,0-20.467-0.282-30.683,0.079c-10.624,0.374-17.544-7.835-17.183-17.107
		c0.727-18.674,0.182-37.397,0.23-56.1c0.027-10.216,5.882-16.174,16.226-16.227c21.455-0.109,42.915,0.218,64.364-0.154
		c8.711-0.152,15.998,7.083,15.757,16.039c-0.515,19.188-0.098,38.399-0.173,57.6c-0.041,10.345-5.184,15.63-15.607,15.824
		C1429.854,95.613,1418.874,95.455,1407.897,95.455"/>
	<path fill="#626264" d="M2247.73,95.457c-10.491-0.001-20.981-0.033-31.473,0.012c-4.973,0.022-9.366-1.371-12.877-4.987
		c-2.768-2.851-3.591-6.345-3.572-10.286c0.094-19.474-0.001-38.948,0.061-58.423c0.029-9.406,5.79-15.36,15.221-15.664
		c6.238-0.2,12.488-0.041,18.732-0.042c15.236,0,30.473-0.048,45.709,0.018c10.746,0.045,16.231,5.424,16.27,16.01
		c0.068,18.975,0.048,37.95,0.007,56.925c-0.024,11.179-5.192,16.313-16.606,16.418C2268.711,95.535,2258.221,95.458,2247.73,95.457
		"/>
	<path fill="#00A7DE" d="M3476.565,364.308c0-32.477-0.021-64.953,0.011-97.43c0.012-13.034,5.96-22.371,17.785-27.911
		c3.21-1.505,6.582-2.191,10.162-2.179c17.994,0.061,36.076-1.109,53.968,0.257c52.916,4.04,90.927,30.728,110.97,79.761
		c30.264,74.039-14.728,156.412-93.125,172.794c-7.33,1.532-14.781,2.352-22.318,2.315c-15.494-0.074-30.998-0.344-46.483,0.063
		c-18.919,0.497-31.442-14.924-31.146-30.992C3476.98,428.769,3476.564,396.535,3476.565,364.308"/>
	<path fill="#626264" d="M359.617,165.357c-0.975-19.539-4.244-38.711-12.348-56.712c-17.44-38.737-47.496-63.455-87.117-77.061
		c-29.563-10.153-60.278-13.606-91.372-14.039C129.549,17,90.387,18.417,51.363,22.638c-10.663,1.153-21.312,2.587-31.886,4.371
		C12.181,28.239,5.494,30.95,2.184,38.52C1.828,39.333,0.745,39.831,0,40.475v490.195c1.099-0.235,1.989,0.158,2.543,1.076
		c3.825,6.334,9.714,7.914,16.679,7.813c13.49-0.197,26.984-0.055,40.476-0.059c7.995-0.002,15.999,0.217,23.983-0.087
		c8.81-0.336,13.719-5.563,14.016-14.271c0.06-1.746,0.012-3.496,0.012-5.244c0.001-55.195,0-110.389,0.001-165.582
		c0-1.999,0.089-4,0-5.993c-0.128-2.869,1.031-4.028,4.002-3.837c5.731,0.368,11.489,0.309,17.215,0.717
		c31.206,2.218,62.376,2.564,93.417-2.008c22.036-3.245,43.665-8.078,63.92-17.794c40.939-19.637,67.747-50.995,78.736-95.284
		C360.279,208.838,360.702,187.099,359.617,165.357 M259.258,212.836c-6.545,25.05-23.109,40.688-47.808,47.987
		c-18.901,5.587-38.291,6.745-57.821,6.294c-16.465-0.381-32.92-1.132-49.379-1.738c-6.45-0.238-6.514-0.264-6.521-6.826
		c-0.029-25.468-0.012-50.937-0.011-76.404s-0.021-50.936,0.017-76.403c0.009-6.309,0.089-6.465,5.987-6.741
		c23.931-1.117,47.854-2.864,71.833-1.661c15.536,0.78,30.702,3.521,45.275,9.18c20.876,8.105,34.299,22.863,39.093,44.771
		C264.407,171.787,264.571,192.5,259.258,212.836"/>
	<path fill="#626264" d="M955.007,316.067c-0.342-19.492-2.059-38.87-7.303-57.771c-16.027-57.765-52.348-95.365-110.778-110.489
		c-24.676-6.387-49.858-6.891-75.127-3.962c-32.887,3.813-62.465,15.632-87.176,37.848c-31.258,28.101-45.811,64.548-50.806,105.496
		c-2.278,18.681-1.004,37.417-1.426,53.321c0,13.795-0.015,24.785,0.003,35.775c0.029,18.572,2.35,36.867,7.459,54.714
		c15.464,54.012,49.467,90.481,103.626,106.622c31.654,9.433,64.227,9.634,96.445,3.236c45.297-8.996,80.188-33.335,102.772-74.125
		c16.386-29.597,21.741-61.906,22.324-95.215C955.341,353.038,955.33,334.545,955.007,316.067 M862.207,383.169
		c-0.884,18.918-5.31,36.965-15.831,53.116c-10.94,16.794-26.641,25.973-46.299,28.209c-12.191,1.386-24.408,1.042-36.319-2.736
		c-12.802-4.06-23.191-11.377-31.017-22.3c-10.611-14.81-15.677-31.594-17.46-49.5c-2.381-23.901-0.696-47.877-1.175-71.815
		c-0.215-10.758,0.826-21.426,2.75-31.991c2.024-11.112,5.696-21.659,11.34-31.505c12.098-21.103,30.761-31.255,54.581-32.669
		c8.488-0.503,16.965-0.034,25.292,1.96c23.746,5.683,38.214,21.419,46.721,43.411c5.646,14.594,7.75,29.866,7.773,45.455
		c0.016,10.482,0.003,20.964,0.003,31.446c-0.081,0-0.162,0-0.243,0C862.322,357.225,862.812,370.222,862.207,383.169"/>
	<path fill="#626264" d="M2648.723,519.901c0.002-80.687-0.016-161.375,0.025-242.062c0.005-10.249-0.232-20.465-1.721-30.626
		c-2.858-19.521-8.741-37.905-20.407-54.085c-14.435-20.02-34.354-32.3-57.304-40.195c-23.172-7.971-47.188-10.397-71.52-10.68
		c-30.785-0.357-61.363,2.246-91.811,6.542c-8.646,1.219-17.27,2.671-25.832,4.374c-10.08,2.003-13.57,6.414-13.594,16.474
		c-0.031,13.989-0.047,27.979,0.009,41.967c0.038,9.403,2.525,11.945,12.059,12.045c4.736,0.05,9.503-0.159,14.215-0.651
		c37.069-3.874,74.252-4.741,111.481-4.239c10.041,0.135,19.824,1.983,29.166,5.932c9.285,3.925,15.637,10.518,18.963,20.012
		c1.486,4.243,2.488,8.596,3.191,13.051c1.961,12.419,1.332,24.919,1.338,37.392c0.006,12.067,1.552,10.391-10.123,10.488
		c-29.209,0.242-58.463-1.035-87.543,3.118c-19.353,2.764-38.35,6.812-56.16,15.126c-27.8,12.977-46.531,33.884-54.735,63.709
		c-6.411,23.308-6.431,47.077-2.53,70.574c6.498,39.138,28.101,66.909,66.434,79.384c26.545,8.64,54.039,9.245,81.498,4.356
		c20.854-3.711,40.031-12.124,58.607-22.044c2.768-1.478,5.276-3.692,9.323-4.101c0,3.286,0.06,6.236-0.015,9.181
		c-0.088,3.415,1.043,6.354,3.191,8.951c3.457,4.182,8.016,5.638,13.297,5.624c17.994-0.052,35.988-0.022,53.981-0.018
		c2.261,0.001,4.474-0.206,6.649-0.915c5.832-1.9,9.11-5.904,9.779-11.946C2648.884,524.418,2648.723,522.149,2648.723,519.901
		 M2552.408,454.483c-20.637,10.224-42.277,16.596-65.348,17.107c-9.945,0.221-19.908-0.736-29.566-3.82
		c-11.694-3.735-18.188-11.734-20.402-23.531c-2.572-13.689-1.842-27.299,0.963-40.881c2.682-12.995,10.457-21.723,22.182-27.429
		c11.695-5.692,24.26-7.928,36.986-8.397c18.217-0.671,36.471-0.245,54.707-0.475c3.855-0.049,5.217,1.174,5.155,5.113
		c-0.2,12.734-0.075,25.473-0.073,38.21c0.002,11.987-0.125,23.978,0.075,35.963C2557.15,450.233,2556.259,452.575,2552.408,454.483
		"/>
</g>
</svg>
