<?xml version="1.0" encoding="utf-8"?>
<!-- Generator: Adobe Illustrator 16.0.0, SVG Export Plug-In . SVG Version: 6.00 Build 0)  -->
<!DOCTYPE svg PUBLIC "-//W3C//DTD SVG 1.1//EN" "http://www.w3.org/Graphics/SVG/1.1/DTD/svg11.dtd">
<svg version="1.1" id="Capa_1" xmlns="http://www.w3.org/2000/svg" xmlns:xlink="http://www.w3.org/1999/xlink" x="0px" y="0px"
	 width="554.938px" height="100px" viewBox="0 0 554.938 100" enable-background="new 0 0 554.938 100" xml:space="preserve">
<g>
	<g>
		<linearGradient id="SVGID_1_" gradientUnits="userSpaceOnUse" x1="38.416" y1="-74.5728" x2="38.416" y2="93.9554">
			<stop  offset="0.3049" style="stop-color:#00B27A"/>
			<stop  offset="0.5909" style="stop-color:#29C69D"/>
			<stop  offset="0.8542" style="stop-color:#49D5B8"/>
			<stop  offset="1" style="stop-color:#55DBC2"/>
		</linearGradient>
		<path fill-rule="evenodd" clip-rule="evenodd" fill="url(#SVGID_1_)" d="M56.344,48.272c1.02,0.371,2.018,0.791,3.06,1.071
			c3.537,0.977,6.7,2.612,9.473,4.988c6.364,5.461,8.366,12.614,7.889,20.646c-0.467,7.861-4.075,13.981-10.618,18.337
			c-3.76,2.513-7.97,3.939-12.364,4.861c-5.148,1.094-10.373,1.181-15.608,1.162c-9.831-0.053-19.661-0.041-29.492-0.044
			c-2.273,0-4.52-0.298-6.055-2.097C1.705,96.116,0.95,94.7,0.636,93.315c-0.456-2.002-0.597-4.111-0.597-6.176
			C-0.01,59.598,0.001,32.042,0.001,4.481c0-2.512,0.081-2.599,2.566-2.599c13.341,0,26.703,0.003,40.044,0.003
			c4.823,0,9.555,0.756,14.063,2.385c6.088,2.186,11.052,5.859,13.83,11.922c1.746,3.811,2.268,7.866,1.953,12.014
			c-0.369,4.736-1.764,9.077-4.959,12.739c-2.67,3.071-5.925,5.211-9.825,6.364c-0.407,0.125-0.819,0.266-1.231,0.387
			C56.408,47.887,56.376,48.079,56.344,48.272z M29.51,88.737c3.065,0,6.131,0.006,9.201-0.003c4.373-0.035,8.734-0.079,13.01-1.278
			c6.332-1.784,11.47-4.914,13.314-11.688c1.079-3.972,0.835-7.959-1.221-11.665c-2.398-4.288-6.364-6.512-10.829-7.977
			c-3.402-1.118-6.956-1.501-10.531-1.514c-9.689-0.074-19.385-0.093-29.085-0.146c-1.953,0-2.208,0.284-2.208,2.3
			c0,9.966,0,19.93,0,29.896c0,1.842,0.223,2.077,2.11,2.077C18.691,88.739,24.105,88.739,29.51,88.737z M28.994,12.767
			c0-0.044,0-0.098,0-0.146c-5.365,0-10.726,0.008-16.086-0.012c-1.145-0.008-1.779,0.322-1.774,1.605
			c0.032,9.332,0.021,18.666,0.038,27.996c0.006,1.514,0.325,1.803,1.845,1.803c8.344,0,16.683,0.065,25.021-0.051
			c3.32-0.052,6.673-0.313,9.934-0.893c6.055-1.088,10.824-4.082,12.625-10.344c1.399-4.858,0.987-9.607-2.3-13.709
			c-3.396-4.225-8.209-5.85-13.342-6.17C39.655,12.511,34.322,12.767,28.994,12.767z"/>
		<linearGradient id="SVGID_2_" gradientUnits="userSpaceOnUse" x1="219.1416" y1="-74.5669" x2="219.1416" y2="93.9512">
			<stop  offset="0.3049" style="stop-color:#00B27A"/>
			<stop  offset="0.5909" style="stop-color:#29C69D"/>
			<stop  offset="0.8542" style="stop-color:#49D5B8"/>
			<stop  offset="1" style="stop-color:#55DBC2"/>
		</linearGradient>
		<path fill-rule="evenodd" clip-rule="evenodd" fill="url(#SVGID_2_)" d="M252.465,71.599c0,8.515,0,17.047,0,25.553
			c0,1.948-0.239,2.179-2.171,2.188c-3.499,0.005-6.488-1.025-7.915-4.484c-0.662-1.588-0.781-3.396-1.193-5.105
			c-0.098-0.41-0.337-0.775-0.505-1.17c-0.401,0.226-0.896,0.369-1.183,0.706c-3.993,4.604-9.033,7.492-14.877,9.082
			c-6.168,1.671-12.429,2.192-18.723,0.928c-8.518-1.701-14.984-6.12-18.343-14.439c-2.062-5.133-2.306-10.39-0.646-15.614
			c1.822-5.721,5.815-9.631,11.214-12.139c5.594-2.583,11.513-3.408,17.622-3.364c7.752,0.044,15.511,0.013,23.269,0.021
			c1.568,0,1.813-0.214,1.813-1.779c0-3.192,0.049-6.378-0.972-9.503c-1.361-4.18-3.955-7.294-7.85-9.149
			c-6.56-3.134-13.406-3.071-20.34-1.465c-5.339,1.221-10.141,3.648-14.687,6.636c-1.514,0.989-2.029,0.884-2.979-0.732
			c-1.025-1.693-1.997-3.418-3.011-5.122c-0.603-0.981-0.282-1.714,0.574-2.3c10.971-7.368,22.928-10.852,36.215-9.24
			c6.223,0.744,11.963,2.615,16.655,6.918c4.097,3.754,6.787,8.475,7.184,13.997c0.559,7.759,0.537,15.571,0.754,23.351
			c0.055,2.08,0,4.15,0,6.229C252.404,71.599,252.438,71.599,252.465,71.599z M226.58,62.985c0,0.02,0,0.03,0,0.041
			c-3.825,0-7.66-0.113-11.48,0.033c-4.221,0.178-8.403,0.553-12.331,2.495c-6.158,3.035-7.498,10.156-4.78,15.918
			c2.301,4.883,6.657,7.137,11.681,7.954c4.688,0.781,9.413,0.586,14.063-0.728c5.312-1.489,9.874-4.077,13.281-8.485
			c1.915-2.463,3.598-5.127,3.863-8.322c0.195-2.377,0.038-4.774,0.054-7.172c0.017-1.216-0.461-1.77-1.773-1.758
			C234.962,63.016,230.769,62.985,226.58,62.985z"/>
		<linearGradient id="SVGID_3_" gradientUnits="userSpaceOnUse" x1="143.999" y1="-74.5713" x2="143.999" y2="93.9499">
			<stop  offset="0.3049" style="stop-color:#00B27A"/>
			<stop  offset="0.5909" style="stop-color:#29C69D"/>
			<stop  offset="0.8542" style="stop-color:#49D5B8"/>
			<stop  offset="1" style="stop-color:#55DBC2"/>
		</linearGradient>
		<path fill-rule="evenodd" clip-rule="evenodd" fill="url(#SVGID_3_)" d="M147.739,99.446c-5.762,0.212-11.61-0.992-17.112-3.564
			c-7.291-3.379-12.814-8.696-16.568-15.871c-4.503-8.627-5.42-17.83-3.982-27.214c1.649-10.821,6.923-19.661,16.243-25.706
			c5.252-3.391,11.079-5.34,17.361-5.805c5.789-0.414,11.551-0.263,17.177,1.3c5.94,1.644,11.296,4.438,15.81,8.708
			c0.868,0.824,0.981,1.648,0.217,2.609c-1.351,1.679-2.675,3.385-4.036,5.075c-0.993,1.224-1.53,1.229-2.832,0.342
			c-2.072-1.421-4.091-2.97-6.305-4.129c-6.19-3.187-12.787-4.088-19.683-3.192c-7.313,0.938-13.173,4.383-17.644,10.172
			c-2.854,3.711-4.384,8.016-5.144,12.637c-0.943,5.631-0.396,11.11,1.438,16.509c1.829,5.336,5.035,9.63,9.608,12.882
			c5.659,4.008,12.056,5.244,18.87,4.783c4.763-0.336,9.396-1.313,13.552-3.749c2.269-1.318,4.324-3.05,6.381-4.715
			c1.302-1.052,1.66-1.149,2.794,0.027c1.329,1.416,2.664,2.827,4.009,4.21c0.891,0.925,0.863,1.801-0.005,2.719
			c-3.575,3.803-7.715,6.716-12.549,8.734C159.805,98.519,154.054,99.534,147.739,99.446z"/>
		<linearGradient id="SVGID_4_" gradientUnits="userSpaceOnUse" x1="92.7402" y1="-74.5503" x2="92.7402" y2="93.9516">
			<stop  offset="0.3049" style="stop-color:#00B27A"/>
			<stop  offset="0.5909" style="stop-color:#29C69D"/>
			<stop  offset="0.8542" style="stop-color:#49D5B8"/>
			<stop  offset="1" style="stop-color:#55DBC2"/>
		</linearGradient>
		<path fill-rule="evenodd" clip-rule="evenodd" fill="url(#SVGID_4_)" d="M98.406,73.326c0,8.032,0,16.057,0,24.078
			c0,1.853-0.386,2.222-2.219,2.188c-2.946-0.046-5.806-0.498-7.33-3.36c-0.873-1.625-1.416-3.529-1.605-5.363
			c-0.288-2.716-0.146-5.49-0.146-8.235C87.095,71.409,87.1,60.184,87.1,48.953c0-2.29,0.201-2.495,2.441-2.495
			c2.159,0,4.324,0,6.494,0c1.899-0.009,2.365,0.444,2.371,2.397c0.011,3.2-0.006,6.392-0.006,9.603c0,4.951,0,9.918,0,14.868
			H98.406z"/>
		<linearGradient id="SVGID_5_" gradientUnits="userSpaceOnUse" x1="92.6338" y1="-74.5923" x2="92.6338" y2="93.9564">
			<stop  offset="0.3049" style="stop-color:#00B27A"/>
			<stop  offset="0.5909" style="stop-color:#29C69D"/>
			<stop  offset="0.8542" style="stop-color:#49D5B8"/>
			<stop  offset="1" style="stop-color:#55DBC2"/>
		</linearGradient>
		<path fill-rule="evenodd" clip-rule="evenodd" fill="url(#SVGID_5_)" d="M100.158,29.466c-0.011,4.432-3.32,7.91-7.509,7.91
			c-4.188,0-7.541-3.576-7.541-8.052c0-4.346,3.424-7.91,7.563-7.902C96.931,21.438,100.169,24.93,100.158,29.466z"/>
	</g>
	<g>
		<path fill-rule="evenodd" clip-rule="evenodd" fill="#00858A" d="M455.074,69.949c0,5.037-0.011,10.091,0.005,15.137
			c0,0.771-0.238,1.356-0.83,1.858c-2.431,2.092-5.094,3.806-7.975,5.173c-2.757,1.313-5.556,2.569-8.398,3.7
			c-1.671,0.656-3.44,1.088-5.182,1.532c-2.316,0.583-4.622,1.155-6.961,1.604c-5.696,1.096-11.415,1.375-17.177,0.63
			c-3.418-0.451-6.749-1.197-9.977-2.348c-3.891-1.399-7.504-3.281-10.846-5.742c-3.554-2.599-6.597-5.68-9.12-9.283
			c-1.817-2.604-3.261-5.422-4.433-8.393c-2.55-6.532-3.136-13.297-2.501-20.201c0.32-3.394,1.194-6.67,2.415-9.869
			c2.527-6.648,6.673-12.093,12.18-16.531c2.859-2.318,6.017-4.158,9.391-5.66c2.919-1.311,5.925-2.344,9.022-3.001
			c5.604-1.198,11.269-1.747,16.992-1.101c2.344,0.254,4.698,0.488,6.993,1.006c2.637,0.605,5.236,1.392,7.775,2.314
			c2.181,0.781,4.291,1.795,6.348,2.863c1.644,0.848,3.195,1.918,4.725,2.957c1.037,0.723,1.074,1.107,0.364,2.197
			c-1.59,2.475-3.185,4.927-4.818,7.363c-1.416,2.1-2.832,4.226-4.346,6.266c-1.112,1.498-2.528,2.715-4.297,3.35
			c-1.665,0.59-3.418,0.554-5.083-0.032c-1.726-0.599-3.358-1.473-5.084-2.059c-3.276-1.123-6.607-1.726-10.102-1.128
			c-4.281,0.727-7.553,2.894-9.874,6.543c-2.306,3.604-2.876,7.573-2.431,11.745c0.478,4.544,2.42,8.323,6.044,11.16
			c1.845,1.451,3.981,2.344,6.266,2.734c5.312,0.909,10.232-0.136,14.648-3.304c0.684-0.491,0.961-1.102,0.95-1.962
			c-0.027-4.767-0.012-9.534-0.022-14.31c0-1.497,0.342-1.85,1.829-1.85c7.297,0,14.588,0,21.886,0c1.296,0,1.622,0.32,1.622,1.587
			C455.074,59.912,455.074,64.923,455.074,69.949z"/>
		<path fill-rule="evenodd" clip-rule="evenodd" fill="#00858A" d="M538.343,33.759c0,10.197-0.022,20.396,0.011,30.594
			c0.011,1.441,0.136,2.919,0.51,4.311c0.646,2.404,2.176,3.828,4.59,4.289c2.68,0.508,5.29,0.035,7.78-1.061
			c0.879-0.385,1.758-0.754,2.626-1.161c0.586-0.293,0.89-0.095,1.025,0.483c0.06,0.254,0.054,0.537,0.054,0.816
			c0,7.395,0,14.809,0,22.208c0,1.948,0.081,1.679-1.774,2.327c-4.226,1.504-8.604,2.383-13.102,2.485
			c-2.94,0.073-5.844-0.249-8.729-0.879c-3.537-0.781-6.825-2.144-9.863-4.102c-3.439-2.238-6.185-5.132-8.333-8.604
			c-1.78-2.875-2.969-5.995-3.76-9.24c-0.732-2.997-1.021-6.051-1.021-9.133c-0.017-15.633-0.017-31.267-0.017-46.899
			c0-6.193-0.005-12.392-0.011-18.585c0-1.378,0.239-1.608,1.639-1.608c8.941,0,17.871,0,26.813,0c1.334,0,1.563,0.23,1.563,1.59
			C538.343,12.313,538.343,23.025,538.343,33.759L538.343,33.759z"/>
		<path fill-rule="evenodd" clip-rule="evenodd" fill="#00858A" d="M496.535,76.109c0,7.165,0,14.31,0,21.472
			c0,1.096-0.402,1.496-1.465,1.486c-2.882-0.014-5.763,0.032-8.638-0.035c-2.485-0.074-4.997-0.109-7.466-0.451
			c-3.255-0.453-6.348-1.462-8.734-3.925c-1.79-1.869-2.713-4.159-3.104-6.673c-0.185-1.15-0.206-2.353-0.211-3.529
			c-0.017-9.885-0.012-19.783-0.012-29.686c0-1.451,0.098-1.56,1.525-1.56c8.777-0.003,17.545,0,26.313,0.003
			c1.654,0,1.791,0.139,1.791,1.769C496.535,62.03,496.535,69.07,496.535,76.109L496.535,76.109z"/>
		<path fill-rule="evenodd" clip-rule="evenodd" fill="#00858A" d="M481.701,17.729c8.827,0.041,15.213,6.25,15.202,15.346
			c-0.021,8.898-6.337,15.238-15.213,15.232c-8.974-0.008-15.272-6.334-15.267-15.297C466.43,24.086,472.782,17.725,481.701,17.729z
			"/>
		<g>
			<path fill="#00858A" d="M374.996,99.148h-15.083c-15.853,0-22.9-6.329-27.138-13.762l-14.832-25.452L295.08,99.148h-34.19
				l57.054-98.079L374.996,99.148z"/>
			<linearGradient id="SVGID_6_" gradientUnits="userSpaceOnUse" x1="347.2939" y1="-36.1675" x2="347.2939" y2="100.8517">
				<stop  offset="0.3049" style="stop-color:#00B27A"/>
				<stop  offset="0.5909" style="stop-color:#29C69D"/>
				<stop  offset="0.8542" style="stop-color:#49D5B8"/>
				<stop  offset="1" style="stop-color:#55DBC2"/>
			</linearGradient>
			<path fill="url(#SVGID_6_)" d="M376.65,17.729h-16.808c-13.103,0-21.034,6.91-24.761,12.811l-17.145,29.395h34.093L376.65,17.729
				z"/>
		</g>
	</g>
</g>
</svg>
