<?xml version="1.0" encoding="utf-8"?>
<!-- Generator: Adobe Illustrator 16.0.0, SVG Export Plug-In . SVG Version: 6.00 Build 0)  -->
<!DOCTYPE svg PUBLIC "-//W3C//DTD SVG 1.1//EN" "http://www.w3.org/Graphics/SVG/1.1/DTD/svg11.dtd">
<svg version="1.1" id="Capa_1" xmlns="http://www.w3.org/2000/svg" xmlns:xlink="http://www.w3.org/1999/xlink" x="0px" y="0px"
	 width="277.561px" height="100px" viewBox="0 0 277.561 100" enable-background="new 0 0 277.561 100" xml:space="preserve">
<g>
	<path fill-rule="evenodd" clip-rule="evenodd" fill="#EDD632" d="M150.203,79.321c36.014,0.532,80.121,1.18,124.225,1.83
		c2.721,0.037,3.19,0.564,3.129,3.299c-0.083,4.004-0.351,4.355-3.313,4.301c-37.055-0.698-74.116-0.604-111.149,0.817
		c-25.983,0.995-51.952,2.354-77.903,3.976c-22.58,1.417-45.12,3.418-67.672,5.189c-4.126,0.322-8.242,0.803-12.365,1.197
		c-4.232,0.401-5.534-0.894-5.061-5.057c0.17-1.525,0.395-3.045,0.669-4.553c0.84-4.594,3.621-7.097,8.362-7.289
		c16.482-0.658,32.957-1.41,49.442-1.818C86.405,80.515,114.251,80.056,150.203,79.321z"/>
	<g>
		<path fill-rule="evenodd" clip-rule="evenodd" fill="#2A488B" d="M47.397,45.31c3.271,6.249,6.449,12.35,9.632,18.449
			c0.358,0.68,0.771,1.334,1.038,2.047c0.651,1.747,0,3.078-1.809,3.139c-3.83,0.127-7.682,0.199-11.486-0.133
			c-1.136-0.102-2.547-1.426-3.15-2.547c-2.999-5.605-5.827-11.307-8.583-17.031c-0.677-1.4-1.45-2.037-2.974-1.807
			c-0.527,0.076-1.07,0.009-1.605,0.009c-4.496,0-4.471,0-5.237,4.524c-0.771,4.534-1.569,9.057-2.384,13.586
			c-0.495,2.744-1.367,3.461-4.206,3.49c-2.836,0.031-5.675,0.028-8.514,0c-3.277-0.022-3.827-0.637-3.277-3.842
			c1.866-10.797,3.772-21.588,5.657-32.382c1.635-9.356,3.27-18.719,4.904-28.075c0.484-2.78,1.251-3.625,3.83-3.601
			c9.205,0.07,18.413-0.007,27.601,0.461c3.505,0.179,7.114,1.27,10.376,2.652c6.348,2.682,9.046,7.99,9.031,14.715
			c-0.028,12.426-5.565,22.03-17.957,25.863C48.074,44.896,47.889,45.041,47.397,45.31z M29.833,14.899
			c-1.196,6.77-2.282,12.9-3.349,18.918c4.441,0,8.666,0.326,12.832-0.073c6.648-0.632,10.026-4.646,10.179-11.335
			c0.079-3.838-1.354-6.1-5.194-6.615C39.567,15.159,34.746,15.171,29.833,14.899z"/>
		<path fill-rule="evenodd" clip-rule="evenodd" fill="#2A488B" d="M117.774,49.947c-0.983,5.378-1.888,10.502-2.854,15.608
			c-0.535,2.857-1.287,3.458-4.17,3.48c-2.995,0.024-5.986,0.043-8.974-0.012c-2.702-0.047-3.306-0.82-2.864-3.375
			c3.49-19.992,6.977-39.994,10.456-59.988c0.73-4.167,1.157-4.583,5.353-4.54c8.435,0.085,16.869,0.138,25.297,0.389
			c2.34,0.071,4.716,0.621,6.984,1.266c8.647,2.479,12.611,7.63,12.713,16.574c0.058,5.492-0.994,10.818-3.219,15.878
			c-3.936,8.961-11.408,12.897-20.588,14.095c-4.083,0.533-8.253,0.459-12.384,0.609C121.695,50.003,119.858,49.947,117.774,49.947z
			 M120.187,36.317c4.857-0.264,9.447-0.244,13.957-0.85c4.131-0.559,6.872-3.248,7.914-7.343c0.488-1.907,0.81-3.902,0.86-5.866
			c0.102-3.674-1.469-5.855-5.146-6.465c-3.364-0.559-6.836-0.543-10.265-0.641c-3.505-0.098-3.541-0.027-4.156,3.326
			C122.302,24.253,121.304,30.033,120.187,36.317z"/>
		<path fill-rule="evenodd" clip-rule="evenodd" fill="#2A488B" d="M256.18,56.013c-7.157,0-14.131-0.034-21.101,0.063
			c-0.607,0.005-1.436,0.767-1.779,1.388c-1.581,2.891-3.057,5.839-4.496,8.801c-0.954,1.946-2.419,2.828-4.586,2.796
			c-3.146-0.062-6.293-0.007-9.433-0.021c-3.769-0.015-4.34-0.93-2.626-4.235c6.608-12.719,13.227-25.423,19.842-38.129
			c3.893-7.475,7.853-14.914,11.636-22.446c1.165-2.322,2.734-3.237,5.27-3.146c3.751,0.128,7.517,0.011,11.274,0.04
			c2.979,0.015,3.812,0.749,4.297,3.627c3.331,19.879,6.673,39.755,10.008,59.631c0.614,3.672-0.182,4.648-3.827,4.659
			c-3.146,0.011-6.293,0-9.439-0.007c-1.965,0-3.137-0.851-3.422-2.92C257.334,62.786,256.741,59.476,256.18,56.013z
			 M255.411,42.162c-1.104-8.171-2.186-16.171-3.263-24.175c-0.181-0.004-0.354-0.008-0.528-0.012
			c-3.982,8.005-7.964,16.006-12.037,24.187C245.059,42.162,250.093,42.162,255.411,42.162z"/>
		<path fill-rule="evenodd" clip-rule="evenodd" fill="#2A488B" d="M179.55,70.409c-6.279-0.795-12.442-1.442-18.243-3.935
			c-3.307-1.425-3.581-2.304-1.885-5.409c1.067-1.945,2.108-3.91,3.223-5.83c1.327-2.295,2.286-2.605,4.724-1.615
			c6.503,2.637,13.173,3.4,20.034,1.732c1.396-0.338,2.817-0.839,4.039-1.569c3.687-2.19,3.827-6.755,0.195-9.011
			c-2.325-1.438-4.926-2.44-7.414-3.613c-2.564-1.203-5.227-2.22-7.689-3.592c-7.906-4.443-11.545-9.706-8.938-21.514
			c1.794-8.112,7.744-12.275,15.234-14.359c9.075-2.522,18.204-2.101,27.242,0.418c1.168,0.325,2.301,0.841,3.4,1.385
			c2.427,1.19,2.745,2.197,1.482,4.552c-1.045,1.957-2.138,3.896-3.237,5.828c-1.418,2.492-2.134,2.749-4.839,1.897
			c-5.494-1.737-11.086-2.38-16.79-1.364c-1.399,0.254-2.85,0.75-4.047,1.504c-3.389,2.133-3.422,6.666,0,8.732
			c2.543,1.535,5.335,2.664,8.008,3.988c2.817,1.391,5.747,2.593,8.391,4.246c7.78,4.869,10.077,10.861,7.874,19.83
			c-2.278,9.274-9.1,13.693-17.617,15.875C188.437,69.687,183.941,69.835,179.55,70.409z"/>
		<path fill-rule="evenodd" clip-rule="evenodd" fill="#2A488B" d="M76.897,69.039c-1.606,0-3.22,0.04-4.825-0.007
			c-2.684-0.072-3.27-0.705-2.825-3.404c1.227-7.4,2.528-14.791,3.823-22.182c2.239-12.82,4.503-25.635,6.745-38.455
			c0.572-3.282,1.194-3.862,4.5-3.873c2.911-0.015,5.823-0.025,8.734,0c3.284,0.023,3.834,0.647,3.284,3.828
			c-1.852,10.713-3.732,21.421-5.613,32.131c-1.613,9.193-3.252,18.392-4.854,27.596c-0.67,3.834-1.241,4.359-5.057,4.369
			C79.504,69.042,78.199,69.042,76.897,69.039z"/>
	</g>
</g>
</svg>
