<?xml version="1.0" encoding="utf-8"?>
<!-- Generator: Adobe Illustrator 16.0.0, SVG Export Plug-In . SVG Version: 6.00 Build 0)  -->
<!DOCTYPE svg PUBLIC "-//W3C//DTD SVG 1.1//EN" "http://www.w3.org/Graphics/SVG/1.1/DTD/svg11.dtd">
<svg version="1.1" id="Capa_1" xmlns="http://www.w3.org/2000/svg" xmlns:xlink="http://www.w3.org/1999/xlink" x="0px" y="0px"
	 width="246.985px" height="150.108px" viewBox="0 0 246.985 150.108" enable-background="new 0 0 246.985 150.108"
	 xml:space="preserve">
<g>
	<g>
		<path fill-rule="evenodd" clip-rule="evenodd" fill="#1A1A18" d="M5.953,121.914l185.354-1.971
			c0.503,0.787,0.432,1.438-0.142,1.895l-28.335,22.28c4.492-6.069,12.64-12.659,13.481-18.206L5.953,121.914z"/>
		
			<path fill="none" stroke="#1A1A18" stroke-width="0.216" stroke-linecap="round" stroke-linejoin="round" stroke-miterlimit="22.9256" d="
			M5.953,121.914l185.354-1.971c0.503,0.787,0.432,1.438-0.142,1.895l-28.335,22.28c4.492-6.069,12.64-12.659,13.481-18.206
			L5.953,121.914z"/>
		<path fill-rule="evenodd" clip-rule="evenodd" fill="#1A1A18" d="M0.108,129.951l167.366-1.779
			c0.454,0.71,0.392,1.298-0.127,1.711L141.76,150c4.058-5.48,11.416-11.431,12.173-16.438L0.108,129.951z"/>
		
			<path fill="none" stroke="#1A1A18" stroke-width="0.216" stroke-linecap="round" stroke-linejoin="round" stroke-miterlimit="22.9256" d="
			M0.108,129.951l167.366-1.779c0.454,0.71,0.392,1.298-0.127,1.711L141.76,150c4.058-5.48,11.416-11.431,12.173-16.438
			L0.108,129.951z"/>
		<path fill-rule="evenodd" clip-rule="evenodd" fill="#FFCB00" d="M72.294,29.302c-5.219,2.836-10.287,5.81-15.205,8.899
			c81.012-28.206,153.047-17.278,174.025,29.152c3.558,7.879,5.447,16.562,5.753,25.82c10.754-21.823,13.405-42.982,5.679-60.082
			C223.3-9.501,146.821-11.206,72.294,29.302"/>
		<path fill="#1A1A18" d="M183.065,100.391c-0.646,2.881-0.58,4.944,0.207,6.206c0.787,1.252,2.105,1.885,3.941,1.885
			c1.893,0,3.493-0.619,4.807-1.847c1.312-1.233,2.33-3.442,3.047-6.628c0.605-2.688,0.498-4.644-0.303-5.886
			c-0.806-1.233-2.131-1.85-3.988-1.85c-1.775,0-3.338,0.624-4.698,1.885C184.724,95.41,183.718,97.494,183.065,100.391z
			 M174.265,100.354c1.045-4.654,3.159-8.276,6.325-10.862c3.179-2.596,7.077-3.889,11.702-3.889c4.743,0,8.115,1.274,10.109,3.821
			c1.99,2.543,2.474,6.11,1.445,10.695c-0.749,3.329-1.926,6.064-3.525,8.192c-1.599,2.131-3.591,3.79-5.975,4.977
			c-2.392,1.187-5.158,1.779-8.322,1.779c-3.21,0-5.757-0.513-7.637-1.536c-1.87-1.025-3.213-2.644-4.028-4.86
			C173.55,106.456,173.515,103.684,174.265,100.354z M155.666,104.26l1.331-5.925h13.601l-2.729,12.148
			c-2.998,1.771-5.574,2.985-7.723,3.623c-2.146,0.642-4.594,0.962-7.338,0.962c-3.385,0-6.006-0.578-7.879-1.733
			c-1.877-1.145-3.143-2.864-3.799-5.146c-0.662-2.284-0.666-4.898-0.005-7.849c0.701-3.112,1.953-5.821,3.75-8.121
			c1.804-2.294,4.072-4.043,6.813-5.234c2.142-0.925,4.845-1.381,8.108-1.381c3.147,0,5.437,0.285,6.872,0.857
			c1.434,0.57,2.527,1.453,3.296,2.654c0.757,1.192,1.191,2.712,1.294,4.557l-8.83,1.512c-0.11-1.076-0.522-1.897-1.23-2.469
			c-0.703-0.569-1.704-0.854-3-0.854c-1.929,0-3.621,0.669-5.068,2.009c-1.451,1.348-2.503,3.465-3.155,6.37
			c-0.695,3.086-0.603,5.288,0.26,6.608c0.858,1.318,2.326,1.985,4.406,1.985c0.979,0,1.955-0.149,2.907-0.433
			c0.96-0.285,2.1-0.771,3.398-1.454l0.604-2.687H155.666z M126.899,103.716l-0.846-10.244l-5.436,10.244H126.899z M127.364,109.878
			H117.33l-2.437,4.706h-8.996l17.109-28.497h9.599l4.313,28.497h-9.216L127.364,109.878z M95.887,98.237h2.159
			c1.695,0,2.951-0.293,3.771-0.884c0.817-0.59,1.333-1.348,1.535-2.262c0.203-0.897,0.073-1.659-0.383-2.277
			c-0.449-0.623-1.5-0.935-3.145-0.935h-2.51L95.887,98.237z M89.773,86.087h14.637c3.183,0,5.402,0.759,6.647,2.277
			c1.243,1.511,1.556,3.677,0.928,6.468c-0.646,2.88-2.014,5.13-4.111,6.747c-2.094,1.619-4.917,2.43-8.467,2.43h-4.816
			l-2.379,10.575h-8.84L89.773,86.087z"/>
		<path fill="none" stroke="#1A1A18" stroke-width="0.216" stroke-miterlimit="22.9256" d="M183.065,100.391
			c-0.646,2.881-0.58,4.944,0.207,6.206c0.787,1.252,2.105,1.885,3.941,1.885c1.893,0,3.493-0.619,4.807-1.847
			c1.312-1.233,2.33-3.442,3.047-6.628c0.605-2.688,0.498-4.644-0.303-5.886c-0.806-1.233-2.131-1.85-3.988-1.85
			c-1.775,0-3.338,0.624-4.698,1.885C184.724,95.41,183.718,97.494,183.065,100.391z M174.265,100.354
			c1.045-4.654,3.159-8.276,6.325-10.862c3.179-2.596,7.077-3.889,11.702-3.889c4.743,0,8.115,1.274,10.109,3.821
			c1.99,2.543,2.474,6.11,1.445,10.695c-0.749,3.329-1.926,6.064-3.525,8.192c-1.599,2.131-3.591,3.79-5.975,4.977
			c-2.392,1.187-5.158,1.779-8.322,1.779c-3.21,0-5.757-0.513-7.637-1.536c-1.87-1.025-3.213-2.644-4.028-4.86
			C173.55,106.456,173.515,103.684,174.265,100.354z M155.666,104.26l1.331-5.925h13.601l-2.729,12.148
			c-2.998,1.771-5.574,2.985-7.723,3.623c-2.146,0.642-4.594,0.962-7.338,0.962c-3.385,0-6.006-0.578-7.879-1.733
			c-1.877-1.145-3.143-2.864-3.799-5.146c-0.662-2.284-0.666-4.898-0.005-7.849c0.701-3.112,1.953-5.821,3.75-8.121
			c1.804-2.294,4.072-4.043,6.813-5.234c2.142-0.925,4.845-1.381,8.108-1.381c3.147,0,5.437,0.285,6.872,0.857
			c1.434,0.57,2.527,1.453,3.296,2.654c0.757,1.192,1.191,2.712,1.294,4.557l-8.83,1.512c-0.11-1.076-0.522-1.897-1.23-2.469
			c-0.703-0.569-1.704-0.854-3-0.854c-1.929,0-3.621,0.669-5.068,2.009c-1.451,1.348-2.503,3.465-3.155,6.37
			c-0.695,3.086-0.603,5.288,0.26,6.608c0.858,1.318,2.326,1.985,4.406,1.985c0.979,0,1.955-0.149,2.907-0.433
			c0.96-0.285,2.1-0.771,3.398-1.454l0.604-2.687H155.666z M126.899,103.716l-0.846-10.244l-5.436,10.244H126.899z M127.364,109.878
			H117.33l-2.437,4.706h-8.996l17.109-28.497h9.599l4.313,28.497h-9.216L127.364,109.878z M95.887,98.237h2.159
			c1.695,0,2.951-0.293,3.771-0.884c0.817-0.59,1.333-1.348,1.535-2.262c0.203-0.897,0.073-1.659-0.383-2.277
			c-0.449-0.623-1.5-0.935-3.145-0.935h-2.51L95.887,98.237z M89.773,86.087h14.637c3.183,0,5.402,0.759,6.647,2.277
			c1.243,1.511,1.556,3.677,0.928,6.468c-0.646,2.88-2.014,5.13-4.111,6.747c-2.094,1.619-4.917,2.43-8.467,2.43h-4.816
			l-2.379,10.575h-8.84L89.773,86.087z"/>
		<path fill="#1A1A18" d="M192.727,66.496c-0.647,2.881-0.581,4.942,0.202,6.204c0.789,1.255,2.104,1.884,3.945,1.884
			c1.89,0,3.494-0.618,4.805-1.845c1.314-1.235,2.334-3.442,3.047-6.626c0.605-2.688,0.501-4.646-0.303-5.886
			c-0.803-1.233-2.129-1.851-3.986-1.851c-1.775,0-3.34,0.623-4.697,1.885C194.382,61.516,193.378,63.596,192.727,66.496z
			 M183.925,66.456c1.045-4.649,3.16-8.271,6.326-10.858c3.176-2.595,7.077-3.889,11.701-3.889c4.744,0,8.115,1.274,10.11,3.822
			c1.989,2.539,2.474,6.109,1.442,10.694c-0.747,3.33-1.924,6.063-3.522,8.193c-1.603,2.128-3.595,3.789-5.977,4.976
			c-2.39,1.188-5.156,1.777-8.318,1.777c-3.212,0-5.759-0.511-7.64-1.533c-1.869-1.026-3.212-2.646-4.03-4.863
			C183.21,72.559,183.176,69.789,183.925,66.456z M158.852,52.192h26.763l-1.576,7.04h-8.987l-4.819,21.457h-8.807l4.824-21.457
			h-8.979L158.852,52.192z M127.749,52.192h8.226l7.187,15.765l3.543-15.765h8.298l-6.399,28.497h-8.3l-7.159-15.646l-3.514,15.646
			h-8.281L127.749,52.192z M99.02,66.496c-0.647,2.881-0.581,4.942,0.207,6.204c0.784,1.255,2.103,1.884,3.94,1.884
			c1.893,0,3.494-0.618,4.805-1.845c1.316-1.235,2.334-3.442,3.047-6.626c0.608-2.688,0.504-4.646-0.3-5.886
			c-0.806-1.233-2.132-1.851-3.989-1.851c-1.77,0-3.338,0.623-4.697,1.885C100.675,61.516,99.671,63.596,99.02,66.496z
			 M90.218,66.456c1.045-4.649,3.159-8.271,6.326-10.858c3.179-2.595,7.08-3.889,11.704-3.889c4.743,0,8.112,1.274,10.107,3.822
			c1.989,2.539,2.476,6.109,1.447,10.694c-0.751,3.33-1.929,6.063-3.527,8.193c-1.6,2.128-3.592,3.789-5.975,4.976
			c-2.39,1.188-5.156,1.777-8.32,1.777c-3.213,0-5.759-0.511-7.639-1.533c-1.87-1.026-3.216-2.646-4.028-4.863
			C89.505,72.559,89.469,69.789,90.218,66.456z M70.62,63.735h3.714c0.398,0,1.204-0.125,2.417-0.383
			c0.607-0.12,1.155-0.416,1.633-0.895c0.473-0.478,0.782-1.029,0.921-1.654c0.21-0.921,0.073-1.624-0.397-2.115
			c-0.474-0.497-1.512-0.744-3.118-0.744H71.92L70.62,63.735z M57.968,80.689l6.403-28.497h14.673c2.722,0,4.751,0.232,6.078,0.703
			c1.336,0.464,2.303,1.327,2.9,2.595c0.602,1.26,0.694,2.798,0.284,4.609c-0.354,1.587-0.996,2.948-1.927,4.097
			c-0.936,1.145-2.07,2.074-3.408,2.793c-0.856,0.45-1.968,0.827-3.342,1.12c0.967,0.349,1.652,0.703,2.058,1.055
			c0.267,0.23,0.628,0.729,1.072,1.494c0.444,0.768,0.722,1.351,0.835,1.77l2.404,8.261h-9.953l-2.744-8.713
			c-0.347-1.122-0.713-1.858-1.108-2.193c-0.53-0.439-1.206-0.659-2.009-0.659H69.41L66.81,80.689H57.968z M41.583,64.341h2.158
			c1.696,0,2.951-0.293,3.774-0.884c0.815-0.59,1.33-1.345,1.535-2.26c0.2-0.897,0.073-1.661-0.386-2.276
			c-0.449-0.625-1.499-0.935-3.145-0.935h-2.51L41.583,64.341z M35.47,52.192h14.636c3.184,0,5.403,0.757,6.648,2.274
			c1.245,1.515,1.555,3.676,0.928,6.47c-0.647,2.879-2.017,5.128-4.108,6.749c-2.098,1.616-4.918,2.429-8.467,2.429h-4.82
			l-2.373,10.575h-8.845L35.47,52.192z"/>
		<path fill="none" stroke="#1A1A18" stroke-width="0.216" stroke-miterlimit="22.9256" d="M192.727,66.496
			c-0.647,2.881-0.581,4.942,0.202,6.204c0.789,1.255,2.104,1.884,3.945,1.884c1.89,0,3.494-0.618,4.805-1.845
			c1.314-1.235,2.334-3.442,3.047-6.626c0.605-2.688,0.501-4.646-0.303-5.886c-0.803-1.233-2.129-1.851-3.986-1.851
			c-1.775,0-3.34,0.623-4.697,1.885C194.382,61.516,193.378,63.596,192.727,66.496z M183.925,66.456
			c1.045-4.649,3.16-8.271,6.326-10.858c3.176-2.595,7.077-3.889,11.701-3.889c4.744,0,8.115,1.274,10.11,3.822
			c1.989,2.539,2.474,6.109,1.442,10.694c-0.747,3.33-1.924,6.063-3.522,8.193c-1.603,2.128-3.595,3.789-5.977,4.976
			c-2.39,1.188-5.156,1.777-8.318,1.777c-3.212,0-5.759-0.511-7.64-1.533c-1.869-1.026-3.212-2.646-4.03-4.863
			C183.21,72.559,183.176,69.789,183.925,66.456z M158.852,52.192h26.763l-1.576,7.04h-8.987l-4.819,21.457h-8.807l4.824-21.457
			h-8.979L158.852,52.192z M127.749,52.192h8.226l7.187,15.765l3.543-15.765h8.298l-6.399,28.497h-8.3l-7.159-15.646l-3.514,15.646
			h-8.281L127.749,52.192z M99.02,66.496c-0.647,2.881-0.581,4.942,0.207,6.204c0.784,1.255,2.103,1.884,3.94,1.884
			c1.893,0,3.494-0.618,4.805-1.845c1.316-1.235,2.334-3.442,3.047-6.626c0.608-2.688,0.504-4.646-0.3-5.886
			c-0.806-1.233-2.132-1.851-3.989-1.851c-1.77,0-3.338,0.623-4.697,1.885C100.675,61.516,99.671,63.596,99.02,66.496z
			 M90.218,66.456c1.045-4.649,3.159-8.271,6.326-10.858c3.179-2.595,7.08-3.889,11.704-3.889c4.743,0,8.112,1.274,10.107,3.822
			c1.989,2.539,2.476,6.109,1.447,10.694c-0.751,3.33-1.929,6.063-3.527,8.193c-1.6,2.128-3.592,3.789-5.975,4.976
			c-2.39,1.188-5.156,1.777-8.32,1.777c-3.213,0-5.759-0.511-7.639-1.533c-1.87-1.026-3.216-2.646-4.028-4.863
			C89.505,72.559,89.469,69.789,90.218,66.456z M70.62,63.735h3.714c0.398,0,1.204-0.125,2.417-0.383
			c0.607-0.12,1.155-0.416,1.633-0.895c0.473-0.478,0.782-1.029,0.921-1.654c0.21-0.921,0.073-1.624-0.397-2.115
			c-0.474-0.497-1.512-0.744-3.118-0.744H71.92L70.62,63.735z M57.968,80.689l6.403-28.497h14.673c2.722,0,4.751,0.232,6.078,0.703
			c1.336,0.464,2.303,1.327,2.9,2.595c0.602,1.26,0.694,2.798,0.284,4.609c-0.354,1.587-0.996,2.948-1.927,4.097
			c-0.936,1.145-2.07,2.074-3.408,2.793c-0.856,0.45-1.968,0.827-3.342,1.12c0.967,0.349,1.652,0.703,2.058,1.055
			c0.267,0.23,0.628,0.729,1.072,1.494c0.444,0.768,0.722,1.351,0.835,1.77l2.404,8.261h-9.953l-2.744-8.713
			c-0.347-1.122-0.713-1.858-1.108-2.193c-0.53-0.439-1.206-0.659-2.009-0.659H69.41L66.81,80.689H57.968z M41.583,64.341h2.158
			c1.696,0,2.951-0.293,3.774-0.884c0.815-0.59,1.33-1.345,1.535-2.26c0.2-0.897,0.073-1.661-0.386-2.276
			c-0.449-0.625-1.499-0.935-3.145-0.935h-2.51L41.583,64.341z M35.47,52.192h14.636c3.184,0,5.403,0.757,6.648,2.274
			c1.245,1.515,1.555,3.676,0.928,6.47c-0.647,2.879-2.017,5.128-4.108,6.749c-2.098,1.616-4.918,2.429-8.467,2.429h-4.82
			l-2.373,10.575h-8.845L35.47,52.192z"/>
	</g>
</g>
</svg>
