<?xml version="1.0" encoding="utf-8"?>
<!-- Generator: Adobe Illustrator 16.0.0, SVG Export Plug-In . SVG Version: 6.00 Build 0)  -->
<!DOCTYPE svg PUBLIC "-//W3C//DTD SVG 1.1//EN" "http://www.w3.org/Graphics/SVG/1.1/DTD/svg11.dtd">
<svg version="1.1" id="Capa_1" xmlns="http://www.w3.org/2000/svg" xmlns:xlink="http://www.w3.org/1999/xlink" x="0px" y="0px"
	 width="280.18px" height="50px" viewBox="0 0 280.18 50" enable-background="new 0 0 280.18 50" xml:space="preserve">
<g>
	<g>
		<path fill="#382D71" d="M159.479,11.485l-29.443,0.122l-3.029,7.634h3.271c0,0,1.817,0.604,1.091,2.544l-11.266,28.111h11.145
			l4.363-10.542h13.449c0,0,6.541-0.122,10.177-6.422l6.057-15.024C165.293,17.907,167.233,12.818,159.479,11.485z M152.573,22.269
			l-3.15,7.149c0,0-0.604,1.938-3.636,1.938l-7.149-0.243l4.606-11.51h7.754C150.998,19.604,153.178,19.604,152.573,22.269z"/>
		<path fill="#FFFFFF" d="M150.998,19.604h-7.754l-4.606,11.51l7.149,0.243c3.031,0,3.636-1.938,3.636-1.938l3.15-7.149
			C153.178,19.604,150.998,19.604,150.998,19.604z"/>
	</g>
	<g>
		<path fill="#382D71" d="M197.283,27.115l6.3-15.51h-23.265c0,0-9.328,0.97-11.874,7.029l-4.968,11.873c0,0-2.424,7.754,4.241,8.36
			h30.048l3.151-7.511C200.917,31.356,195.223,32.083,197.283,27.115z M184.803,31.356h-8.118c0,0-1.695-0.243-0.85-3.15
			c0,0,2.545-8.724,6.182-8.966l7.149,0.242L184.803,31.356z"/>
		<path fill="#FFFFFF" d="M175.835,28.206c-0.846,2.907,0.85,3.15,0.85,3.15h8.118l4.363-11.875l-7.149-0.242
			C178.38,19.482,175.835,28.206,175.835,28.206z"/>
	</g>
	<g>
		<path fill="#382D71" d="M237.574,19.676l-4.123-4.421c-1.724-1.573,0.151-3.147,0.151-3.147l2.023-1.424l-5.175-5.546
			c-15.511,7.795-28.174,16.413-28.174,16.413c-2.4,2.922-0.15,6.295-0.15,6.295l9.817,10.192c0.973,2.772-1.873,3.37-1.873,3.37
			l-6.972-0.073l-3.447,7.567c1.799,0,12.442-0.149,12.442-0.149c9.665-4.87,12.365-8.767,12.365-8.767
			c1.722-2.399-0.077-4.873-0.077-4.873c-1.275-1.572,0.826-2.248,0.826-2.248c8.017-4.42,11.766-8.018,11.766-8.018
			C238.998,22.375,237.574,19.676,237.574,19.676z M225.882,23.723l-8.392,5.322c-1.274,0.673-2.023-0.227-2.023-0.227l-3.372-3.821
			c-0.901-1.125,0.522-2.774,0.522-2.774l6.446-4.121c2.849-1.199,3.973,0.074,3.973,0.074l2.846,2.774
			C226.857,22.449,225.882,23.723,225.882,23.723z"/>
		<path fill="#FFFFFF" d="M223.036,18.177c0,0-1.124-1.273-3.973-0.074l-6.446,4.121c0,0-1.424,1.649-0.522,2.774l3.372,3.821
			c0,0,0.749,0.899,2.023,0.227l8.392-5.322c0,0,0.976-1.273,0-2.772L223.036,18.177z"/>
	</g>
	<g>
		<path fill="#382D71" d="M279.232,20.623c0,0-8.393-8.318-10.415-9.143c0,0-4.498-2.023-8.845,0.075
			c0,0-13.188,6.595-19.334,10.716c0,0-3.82,2.923-2.398,6.671c0,0,7.792,9.068,10.192,10.192c0,0,2.997,2.099,8.243,0.522
			c0,0,14.988-5.769,22.483-12.89C279.159,26.767,281.406,24.22,279.232,20.623z M266.794,26.167
			c-0.076,0.377-7.57,4.347-7.57,4.347c-2.398,1.275-4.122,0.151-4.122,0.151c-1.199-0.674-3.597-3.599-3.597-3.599
			c-0.901-0.974,0.073-2.397,0.073-2.397c1.499-1.499,7.872-4.721,7.872-4.721c1.499-0.975,3.894,0.225,3.894,0.225l3.45,3.147
			C268.217,24.669,266.794,26.167,266.794,26.167z"/>
		<path fill="#FFFFFF" d="M263.344,20.173c0,0-2.395-1.199-3.894-0.225c0,0-6.373,3.222-7.872,4.721c0,0-0.975,1.423-0.073,2.397
			c0,0,2.397,2.925,3.597,3.599c0,0,1.724,1.124,4.122-0.151c0,0,7.494-3.97,7.57-4.347c0,0,1.423-1.498,0-2.847L263.344,20.173z"/>
	</g>
	<path fill="#E33221" d="M125.378,11.63h-11.091c0,0-7.046,17.162-7.721,19.483c0,0-1.349,4.196,0.675,5.846
		c0,0,2.175,2.175,4.571,2.175l7.719-0.077l3.297-7.644h-2.471c0,0-2.848-0.6-1.65-3.297L125.378,11.63z"/>
	<path fill="#E33221" d="M120.282,0.539c0,0,4.122-1.35,6.445,0.225c0,0,2.997,1.798,0.599,5.021c0,0-1.875,3.147-7.044,3.223
		c0,0-4.349,0.523-4.647-3.073C115.635,5.934,115.409,2.261,120.282,0.539z"/>
	<g>
		<path fill="#E33221" d="M105.893,13.354c0,0-1.498-1.649-5.244-1.95l-28.255,0.076l-2.923,7.794h2.398c0,0,2.623,0,1.124,3.822
			L62.502,49.925L73.516,50l4.047-11.017l14.315,0.073c0,0,4.122,0.45,7.869-4.12c0,0,5.697-9.068,7.194-15.888
			C106.941,19.049,108.365,15.302,105.893,13.354z M94.426,22.42c0,1.5-2.848,6.894-2.848,6.894
			c-1.422,1.949-3.747,1.949-3.747,1.949h-7.119l4.798-11.615h7.418C95.476,19.723,94.426,22.42,94.426,22.42z"/>
		<path fill="#FFFFFF" d="M92.928,19.648H85.51l-4.798,11.615h7.119c0,0,2.325,0,3.747-1.949c0,0,2.848-5.395,2.848-6.894
			C94.426,22.42,95.476,19.723,92.928,19.648z"/>
	</g>
	<path fill="#E33221" d="M62.951,26.844l6.22-15.364l-22.334-0.076c-3.37,0-7.117,1.725-7.117,1.725
		c-4.347,2.098-5.322,5.095-5.322,5.095c-1.649,2.474-5.02,11.99-5.02,11.99c-1.948,4.723,0,6.372,0,6.372
		c1.872,2.621,5.469,2.548,5.469,2.548l28.628,0.073l3.146-7.567l-3.52-0.6C61.376,30.214,62.951,26.844,62.951,26.844z
		 M50.361,31.113l-7.421,0.15c0,0-2.698-0.148-1.499-3.671c0,0,1.35-4.722,2.848-6.297c0,0,0.975-1.797,3.897-1.797l6.521,0.15
		L50.361,31.113z"/>
	<path fill="#E33221" d="M33.725,11.555l-3.299,7.944h-8.769c0,0-2.398-0.45-3.896,2.922L11.24,39.057L0,39.207l10.94-27.728
		L33.725,11.555z"/>
</g>
</svg>
